<svg id="svg" version="1.1" width="400" height="145.31428571428572" viewBox="0 0 400 145.31428571428572" xmlns="http://www.w3.org/2000/svg" xmlns:xlink="http://www.w3.org/1999/xlink" ><g id="svgg"><path id="path0" d="M310.081 62.583 C 310.081 78.533,310.101 85.034,310.125 77.028 C 310.149 69.023,310.149 55.973,310.125 48.028 C 310.101 40.084,310.081 46.633,310.081 62.583 " stroke="none" fill="#000000" fill-rule="evenodd"></path><path id="path1" d="M232.412 68.750 C 232.412 75.350,232.433 78.026,232.458 74.696 C 232.484 71.366,232.484 65.966,232.458 62.696 C 232.433 59.426,232.412 62.150,232.412 68.750 M252.569 130.583 C 252.569 132.233,252.594 132.886,252.624 132.033 C 252.655 131.181,252.654 129.831,252.624 129.033 C 252.593 128.236,252.569 128.933,252.569 130.583 M363.705 128.167 C 363.705 128.487,363.740 128.619,363.782 128.458 C 363.823 128.298,363.823 128.035,363.782 127.875 C 363.740 127.715,363.705 127.846,363.705 128.167 M152.238 131.417 C 152.238 133.433,152.262 134.235,152.291 133.199 C 152.320 132.163,152.320 130.513,152.291 129.532 C 152.262 128.552,152.238 129.400,152.238 131.417 M296.235 130.667 C 296.235 132.271,296.260 132.927,296.291 132.125 C 296.321 131.323,296.321 130.010,296.291 129.208 C 296.260 128.406,296.235 129.063,296.235 130.667 M224.069 132.917 C 224.070 134.658,224.094 135.348,224.124 134.450 C 224.154 133.551,224.154 132.126,224.124 131.283 C 224.094 130.440,224.069 131.175,224.069 132.917 " stroke="none" fill="#111111" fill-rule="evenodd"></path><path id="path2" d="M76.667 23.500 L 76.667 27.167 72.083 27.167 L 67.500 27.167 67.500 27.750 L 67.500 28.333 77.420 28.333 L 87.340 28.333 87.295 32.125 L 87.250 35.917 77.375 35.960 L 67.500 36.003 67.500 36.499 L 67.500 36.995 72.042 37.039 L 76.583 37.083 76.628 40.958 L 76.673 44.833 72.086 44.833 L 67.500 44.833 67.500 45.417 L 67.500 46.000 77.420 46.000 L 87.340 46.000 87.295 49.458 L 87.250 52.917 77.375 52.960 L 67.500 53.003 67.500 53.501 L 67.500 54.000 72.086 54.000 L 76.673 54.000 76.628 57.875 L 76.583 61.750 72.042 61.794 L 67.500 61.839 67.500 62.336 L 67.500 62.833 73.689 62.833 L 79.878 62.833 80.273 62.375 L 80.668 61.917 79.292 61.833 L 77.917 61.750 77.872 57.875 L 77.827 54.000 83.216 54.000 L 88.604 54.000 89.072 53.512 L 89.539 53.024 88.978 52.970 L 88.417 52.917 88.372 49.458 L 88.327 46.000 92.464 46.000 L 96.601 46.000 97.167 45.417 L 97.732 44.833 87.780 44.833 L 77.827 44.833 77.872 40.958 L 77.917 37.083 84.216 37.040 L 90.516 36.996 90.487 37.706 C 90.429 39.130,91.174 40.000,92.450 40.000 C 93.476 40.000,93.712 39.831,94.668 38.414 C 95.651 36.958,95.616 36.972,98.250 37.035 L 100.250 37.083 100.333 39.637 L 100.417 42.190 100.870 41.716 C 101.306 41.260,101.324 41.169,101.370 39.163 L 101.417 37.083 108.399 37.040 L 115.381 36.996 115.982 37.637 C 117.254 38.995,118.531 41.874,118.773 43.930 L 118.879 44.833 115.214 44.833 L 111.550 44.833 111.730 45.410 C 111.906 45.972,111.935 45.987,112.880 46.035 L 113.850 46.083 113.845 49.375 C 113.843 51.185,113.839 52.742,113.837 52.833 C 113.835 52.938,112.675 53.000,110.698 53.000 L 107.562 53.000 107.083 53.500 L 106.604 54.000 111.302 54.000 C 113.886 54.000,116.000 54.063,116.000 54.140 C 116.000 54.354,114.038 56.181,112.950 56.980 C 110.058 59.103,112.393 62.222,115.411 60.269 C 116.834 59.347,119.293 56.809,120.234 55.292 L 121.035 54.000 123.687 54.000 L 126.339 54.000 126.295 57.875 L 126.250 61.750 113.833 61.750 L 101.417 61.750 101.367 60.518 L 101.318 59.286 100.826 59.757 C 100.433 60.133,100.333 60.371,100.333 60.930 C 100.333 61.700,100.176 61.833,99.268 61.833 C 98.887 61.833,98.589 61.980,98.252 62.332 L 97.774 62.830 105.811 62.873 L 113.847 62.917 113.844 66.625 C 113.842 68.665,113.839 70.408,113.837 70.500 C 113.834 70.610,109.758 70.667,101.948 70.667 L 90.062 70.667 89.583 71.167 L 89.104 71.667 94.722 71.667 L 100.339 71.667 100.295 75.542 L 100.250 79.417 97.107 79.462 L 93.963 79.507 94.063 79.879 C 94.117 80.083,94.163 80.306,94.164 80.374 C 94.166 80.442,98.596 80.517,104.011 80.540 L 113.855 80.583 113.855 84.167 L 113.855 87.750 108.261 87.794 C 105.184 87.818,102.667 87.869,102.667 87.908 C 102.667 87.947,102.740 88.171,102.829 88.406 L 102.992 88.833 114.663 88.833 L 126.333 88.833 126.333 92.750 L 126.333 96.667 118.917 96.667 C 114.837 96.667,111.500 96.701,111.500 96.742 C 111.500 97.354,111.929 97.654,112.871 97.701 L 113.862 97.750 113.853 101.167 L 113.844 104.583 111.700 104.630 L 109.556 104.676 108.996 105.255 L 108.435 105.833 117.384 105.833 L 126.333 105.833 126.333 109.667 L 126.333 113.500 113.833 113.500 C 102.144 113.500,101.333 113.481,101.333 113.215 C 101.333 113.017,101.075 113.183,100.494 113.756 L 99.654 114.583 106.750 114.667 L 113.847 114.750 113.848 118.500 L 113.848 122.250 112.875 122.299 L 111.903 122.347 111.509 121.632 C 108.906 116.897,102.075 116.918,99.886 121.668 L 99.583 122.325 95.615 122.329 L 91.647 122.333 90.883 122.917 L 90.119 123.500 94.684 123.501 L 99.250 123.502 99.269 124.793 C 99.393 133.155,112.142 133.090,112.185 124.728 L 112.192 123.500 119.262 123.500 L 126.333 123.500 126.333 124.167 C 126.333 124.817,126.347 124.833,126.917 124.833 C 127.486 124.833,127.500 124.817,127.500 124.167 L 127.500 123.500 135.667 123.500 L 143.833 123.500 143.833 122.917 L 143.833 122.333 142.417 122.333 L 141.000 122.333 141.000 118.500 L 141.000 114.667 142.417 114.667 L 143.833 114.667 143.833 114.083 L 143.833 113.500 135.673 113.500 L 127.512 113.500 127.464 109.736 C 127.438 107.666,127.448 105.941,127.486 105.902 C 127.524 105.864,131.218 105.833,135.694 105.833 L 143.833 105.833 143.833 105.250 L 143.833 104.667 142.413 104.667 L 140.993 104.667 141.038 101.208 L 141.083 97.750 142.458 97.702 L 143.833 97.653 143.833 97.160 L 143.833 96.667 135.667 96.667 L 127.500 96.667 127.500 92.750 L 127.500 88.833 135.667 88.833 L 143.833 88.833 143.833 88.340 L 143.833 87.847 142.458 87.798 L 141.083 87.750 141.038 84.125 L 140.993 80.500 142.413 80.500 L 143.833 80.500 143.833 80.000 L 143.833 79.500 135.783 79.500 C 130.932 79.500,127.670 79.437,127.575 79.342 C 127.481 79.249,127.436 77.646,127.464 75.425 L 127.512 71.667 135.673 71.667 L 143.833 71.667 143.833 71.173 L 143.833 70.680 142.458 70.632 L 141.083 70.583 141.083 66.750 L 141.083 62.917 142.458 62.868 L 143.833 62.820 143.833 62.285 L 143.833 61.750 135.803 61.795 C 131.387 61.820,127.714 61.781,127.642 61.709 C 127.571 61.637,127.504 59.892,127.494 57.831 L 127.475 54.083 135.654 54.040 L 143.833 53.997 143.833 53.505 L 143.833 53.013 142.458 52.965 L 141.083 52.917 141.038 49.458 L 140.993 46.000 142.413 46.000 L 143.833 46.000 143.833 45.418 L 143.833 44.836 135.660 44.793 L 127.486 44.750 127.486 41.037 C 127.486 38.994,127.531 37.251,127.586 37.162 C 127.649 37.061,130.721 37.000,135.760 37.000 L 143.833 37.000 143.833 36.500 L 143.833 36.000 142.417 36.000 L 141.000 36.000 141.000 32.167 L 141.000 28.333 142.417 28.333 L 143.833 28.333 143.833 27.752 L 143.833 27.170 135.654 27.127 L 127.475 27.083 127.493 23.458 L 127.512 19.833 126.922 19.833 L 126.333 19.833 126.333 23.500 L 126.333 27.167 113.833 27.167 L 101.333 27.167 101.333 23.500 L 101.333 19.833 100.833 19.833 L 100.333 19.833 100.333 23.500 L 100.333 27.167 89.083 27.167 L 77.833 27.167 77.833 23.500 L 77.833 19.833 77.250 19.833 L 76.667 19.833 76.667 23.500 M104.653 28.403 C 104.614 28.441,103.945 28.559,103.166 28.664 C 99.118 29.211,95.100 31.445,92.380 34.663 L 91.250 35.999 89.792 36.000 L 88.333 36.000 88.333 32.167 L 88.333 28.333 96.528 28.333 C 101.035 28.333,104.691 28.365,104.653 28.403 M113.847 28.402 C 113.885 28.440,113.892 28.917,113.861 29.461 L 113.806 30.452 112.491 29.883 C 111.225 29.336,109.433 28.849,107.500 28.529 C 106.791 28.412,107.398 28.372,110.181 28.355 C 112.159 28.343,113.809 28.364,113.847 28.402 M140.000 32.167 L 140.000 36.000 130.014 36.000 L 120.029 36.000 118.951 34.708 C 117.934 33.490,117.072 32.688,115.625 31.614 L 115.000 31.150 115.000 29.742 L 115.000 28.333 127.500 28.333 L 140.000 28.333 140.000 32.167 M108.750 32.913 C 110.948 33.425,114.363 35.371,113.891 35.842 C 113.791 35.942,110.526 35.987,105.240 35.960 L 96.750 35.917 97.860 35.121 C 101.080 32.813,104.951 32.028,108.750 32.913 M126.295 40.964 L 126.340 44.845 124.628 44.798 L 122.917 44.750 122.792 43.583 C 122.622 42.004,121.960 39.744,121.260 38.353 C 120.534 36.911,120.407 36.984,123.573 37.038 L 126.250 37.083 126.295 40.964 M118.903 47.042 C 118.745 48.493,118.080 50.716,117.449 51.911 L 116.917 52.917 116.000 52.917 L 115.083 52.917 115.038 49.458 L 114.993 46.000 117.005 46.000 L 119.017 46.000 118.903 47.042 M139.962 49.458 L 139.917 52.917 130.772 52.960 L 121.627 53.003 121.722 52.626 C 121.774 52.419,122.009 51.575,122.244 50.750 C 122.479 49.925,122.756 48.519,122.859 47.625 L 123.047 46.000 131.527 46.000 L 140.007 46.000 139.962 49.458 M139.961 66.708 L 139.917 70.583 127.500 70.583 L 115.083 70.583 115.039 66.708 L 114.994 62.833 127.500 62.833 L 140.006 62.833 139.961 66.708 M67.500 71.167 L 67.500 71.667 69.302 71.667 C 71.087 71.667,71.109 71.662,71.583 71.167 L 72.062 70.667 69.781 70.667 L 67.500 70.667 67.500 71.167 M126.295 75.542 L 126.250 79.417 113.833 79.417 L 101.417 79.417 101.372 75.542 L 101.327 71.667 113.833 71.667 L 126.339 71.667 126.295 75.542 M139.962 84.125 L 139.917 87.750 127.458 87.793 L 115.000 87.835 115.000 84.168 L 115.000 80.500 127.503 80.500 L 140.007 80.500 139.962 84.125 M139.962 101.208 L 140.007 104.667 127.503 104.667 L 115.000 104.667 115.000 101.166 L 115.000 97.665 127.458 97.707 L 139.917 97.750 139.962 101.208 M140.000 118.500 L 140.000 122.333 127.500 122.333 L 115.000 122.333 115.000 118.500 L 115.000 114.667 127.500 114.667 L 140.000 114.667 140.000 118.500 " stroke="none" fill="#ffffff" fill-rule="evenodd"></path><path id="path3" d="M151.368 19.532 C 150.984 19.916,151.086 91.375,151.471 91.724 C 151.963 92.169,164.820 92.142,165.224 91.695 C 165.475 91.418,165.501 90.270,165.515 78.820 L 165.530 66.250 166.326 69.333 C 166.764 71.029,167.541 74.029,168.053 76.000 C 168.565 77.971,169.665 82.246,170.496 85.500 C 171.327 88.754,172.048 91.548,172.098 91.708 C 172.242 92.170,187.139 92.157,187.558 91.695 C 188.008 91.197,187.980 20.018,187.529 19.609 C 187.135 19.253,172.552 19.181,172.200 19.533 C 172.048 19.685,171.997 22.656,171.988 31.825 L 171.976 43.917 170.504 38.167 C 169.694 35.004,168.291 29.492,167.388 25.917 L 165.744 19.417 158.657 19.373 C 153.284 19.340,151.521 19.379,151.368 19.532 M206.084 19.610 C 202.750 20.326,200.511 22.527,199.536 26.049 C 199.163 27.397,199.093 54.919,199.459 56.470 C 199.927 58.456,201.037 60.117,202.446 60.943 C 203.982 61.843,204.315 61.885,210.683 61.988 C 215.358 62.063,216.675 62.132,216.891 62.312 C 217.247 62.608,217.319 76.948,216.967 77.300 C 216.817 77.450,214.757 77.500,208.723 77.500 L 200.678 77.500 200.472 77.875 C 200.358 78.081,200.285 78.400,200.309 78.583 C 200.344 78.849,202.395 89.651,202.771 91.551 L 202.864 92.018 213.557 91.961 C 226.400 91.892,227.408 91.731,229.761 89.370 C 232.259 86.865,232.352 86.099,232.296 68.620 L 232.250 54.250 231.870 53.252 C 231.139 51.329,230.251 50.458,228.175 49.630 C 227.294 49.278,226.951 49.256,221.027 49.172 L 214.803 49.083 214.485 48.690 C 214.060 48.164,213.984 34.647,214.403 34.074 C 214.630 33.763,214.970 33.747,223.177 33.667 C 230.904 33.591,231.730 33.557,231.889 33.306 C 232.054 33.044,231.780 31.385,229.846 20.917 L 229.568 19.417 218.409 19.388 C 209.031 19.364,207.064 19.399,206.084 19.610 M254.087 19.542 C 254.049 19.656,253.671 21.700,253.248 24.083 C 252.824 26.467,252.223 29.804,251.912 31.500 C 251.601 33.196,250.971 36.683,250.513 39.250 C 249.538 44.716,248.318 51.504,246.663 60.667 C 246.009 64.287,245.071 69.500,244.580 72.250 C 242.863 81.853,241.858 87.431,241.493 89.381 C 241.001 92.019,240.985 92.000,243.657 92.000 L 245.595 92.000 246.423 90.586 L 247.250 89.173 250.130 89.170 C 253.681 89.166,253.712 89.192,252.069 90.847 L 250.926 92.000 253.713 92.000 C 255.246 92.000,256.505 91.981,256.511 91.958 C 256.517 91.935,256.798 89.967,257.136 87.583 L 257.751 83.250 262.186 83.206 L 266.621 83.161 266.726 83.956 C 266.784 84.393,267.070 86.381,267.361 88.375 L 267.891 92.000 275.329 92.000 C 280.892 92.000,282.817 91.950,282.967 91.800 C 283.270 91.497,283.222 91.005,282.508 87.146 C 282.146 85.186,281.475 81.483,281.017 78.917 C 280.559 76.350,279.724 71.700,279.162 68.583 C 278.600 65.467,277.701 60.479,277.164 57.500 C 276.627 54.521,275.729 49.533,275.167 46.417 C 272.600 32.169,270.334 19.493,270.334 19.375 C 270.333 19.196,254.147 19.362,254.087 19.542 M287.505 23.625 C 286.842 25.985,285.970 29.074,285.568 30.489 C 284.581 33.963,284.181 33.667,289.859 33.667 L 294.333 33.667 294.333 62.558 C 294.333 90.335,294.345 91.459,294.638 91.724 C 295.032 92.080,309.448 92.152,309.800 91.800 C 309.954 91.646,310.000 84.941,310.000 62.633 L 310.000 33.667 314.587 33.667 L 319.174 33.667 319.358 33.263 C 319.508 32.933,319.414 32.382,318.835 30.221 C 318.250 28.036,316.968 23.185,316.146 20.042 L 315.960 19.333 302.336 19.333 L 288.711 19.333 287.505 23.625 M67.500 23.417 L 67.500 27.000 72.000 27.000 L 76.500 27.000 76.500 23.417 L 76.500 19.833 72.000 19.833 L 67.500 19.833 67.500 23.417 M78.000 23.417 L 78.000 27.000 89.000 27.000 L 100.000 27.000 100.000 23.417 L 100.000 19.833 89.000 19.833 L 78.000 19.833 78.000 23.417 M101.500 23.417 L 101.500 27.000 113.833 27.000 L 126.167 27.000 126.167 23.417 L 126.167 19.833 113.833 19.833 L 101.500 19.833 101.500 23.417 M127.667 23.417 L 127.667 27.000 135.750 27.000 L 143.833 27.000 143.833 23.417 L 143.833 19.833 135.750 19.833 L 127.667 19.833 127.667 23.417 M67.500 32.167 L 67.500 35.833 77.250 35.833 L 87.000 35.833 87.000 32.167 L 87.000 28.500 77.250 28.500 L 67.500 28.500 67.500 32.167 M88.500 32.167 L 88.500 35.833 89.813 35.833 L 91.126 35.833 91.816 34.940 C 93.853 32.299,96.910 30.192,100.417 29.012 L 101.917 28.507 95.208 28.503 L 88.500 28.500 88.500 32.167 M110.879 29.002 C 111.683 29.274,112.639 29.649,113.004 29.835 L 113.667 30.173 113.667 29.337 L 113.667 28.500 111.542 28.503 L 109.417 28.507 110.879 29.002 M115.167 29.730 L 115.167 30.960 116.653 32.147 C 117.471 32.800,118.577 33.893,119.112 34.576 L 120.083 35.818 129.958 35.826 L 139.833 35.833 139.833 32.167 L 139.833 28.500 127.500 28.500 L 115.167 28.500 115.167 29.730 M141.333 32.167 L 141.333 35.833 142.583 35.833 L 143.833 35.833 143.833 32.167 L 143.833 28.500 142.583 28.500 L 141.333 28.500 141.333 32.167 M103.220 33.016 C 101.625 33.283,99.570 34.171,98.084 35.236 L 97.251 35.833 105.459 35.833 C 110.091 35.833,113.667 35.769,113.667 35.686 C 113.667 35.427,111.624 34.203,110.330 33.686 C 108.311 32.881,105.577 32.623,103.220 33.016 M67.500 41.000 L 67.500 44.667 72.000 44.667 L 76.500 44.667 76.500 41.000 L 76.500 37.333 72.000 37.333 L 67.500 37.333 67.500 41.000 M78.000 41.000 L 78.000 44.667 87.963 44.667 L 97.926 44.667 98.963 43.621 L 100.000 42.574 100.000 39.954 L 100.000 37.333 97.854 37.333 L 95.708 37.333 94.859 38.562 C 93.123 41.073,90.167 40.736,90.167 38.026 L 90.167 37.333 84.083 37.333 L 78.000 37.333 78.000 41.000 M101.500 39.158 L 101.500 40.982 102.625 40.450 C 105.831 38.931,110.139 40.614,111.282 43.831 L 111.578 44.667 115.118 44.667 L 118.658 44.667 118.564 44.125 C 118.174 41.889,117.077 39.254,115.997 37.958 L 115.476 37.333 108.488 37.333 L 101.500 37.333 101.500 39.158 M121.167 37.409 C 121.167 37.450,121.432 38.088,121.757 38.827 C 122.422 40.340,122.926 42.156,123.095 43.656 L 123.210 44.667 124.688 44.667 L 126.167 44.667 126.167 41.000 L 126.167 37.333 123.667 37.333 C 122.292 37.333,121.167 37.367,121.167 37.409 M127.667 41.000 L 127.667 44.667 135.750 44.667 L 143.833 44.667 143.833 41.000 L 143.833 37.333 135.750 37.333 L 127.667 37.333 127.667 41.000 M67.500 49.417 L 67.500 52.667 77.250 52.667 L 87.000 52.667 87.000 49.417 L 87.000 46.167 77.250 46.167 L 67.500 46.167 67.500 49.417 M88.500 49.417 L 88.500 52.667 89.210 52.667 C 89.910 52.667,89.964 52.622,93.167 49.417 L 96.413 46.167 92.457 46.167 L 88.500 46.167 88.500 49.417 M111.833 46.718 C 111.833 48.056,110.868 49.816,109.188 51.542 L 108.092 52.667 110.879 52.667 L 113.667 52.667 113.667 49.417 L 113.667 46.167 112.750 46.167 L 111.833 46.167 111.833 46.718 M115.167 49.417 L 115.167 52.667 115.990 52.667 L 116.812 52.667 117.324 51.625 C 117.959 50.331,118.436 48.686,118.589 47.258 L 118.705 46.167 116.936 46.167 L 115.167 46.167 115.167 49.417 M123.120 47.542 C 123.041 48.696,122.610 50.670,122.083 52.292 L 121.961 52.667 130.897 52.667 L 139.833 52.667 139.833 49.417 L 139.833 46.167 131.523 46.167 L 123.214 46.167 123.120 47.542 M141.333 49.417 L 141.333 52.667 142.583 52.667 L 143.833 52.667 143.833 49.417 L 143.833 46.167 142.583 46.167 L 141.333 46.167 141.333 49.417 M264.148 64.926 C 264.525 67.864,264.833 70.358,264.833 70.467 C 264.833 70.614,264.124 70.667,262.167 70.667 C 260.700 70.667,259.501 70.648,259.501 70.625 C 259.502 70.602,259.652 69.496,259.834 68.167 C 260.258 65.078,262.161 50.523,262.185 50.178 C 262.204 49.924,262.731 53.885,264.148 64.926 M67.500 57.833 L 67.500 61.500 72.000 61.500 L 76.500 61.500 76.500 57.833 L 76.500 54.167 72.000 54.167 L 67.500 54.167 67.500 57.833 M78.000 57.833 L 78.000 61.500 79.543 61.500 L 81.086 61.500 84.750 57.833 L 88.414 54.167 83.207 54.167 L 78.000 54.167 78.000 57.833 M104.040 56.710 L 101.500 59.254 101.500 60.377 L 101.500 61.500 113.833 61.500 L 126.167 61.500 126.167 57.833 L 126.167 54.167 123.706 54.167 L 121.246 54.167 120.346 55.542 C 117.844 59.361,114.124 61.958,112.584 60.958 C 110.802 59.801,110.999 57.963,113.052 56.594 C 113.528 56.277,114.327 55.602,114.828 55.092 L 115.739 54.167 111.159 54.167 L 106.579 54.167 104.040 56.710 M127.667 57.833 L 127.667 61.500 135.750 61.500 L 143.833 61.500 143.833 57.833 L 143.833 54.167 135.750 54.167 L 127.667 54.167 127.667 57.833 M99.583 61.167 C 99.291 61.490,99.292 61.500,99.641 61.500 C 99.889 61.500,100.000 61.397,100.000 61.167 C 100.000 60.983,99.974 60.833,99.942 60.833 C 99.911 60.833,99.749 60.983,99.583 61.167 M67.500 66.667 L 67.500 70.333 69.876 70.333 L 72.253 70.333 75.917 66.667 L 79.580 63.000 73.540 63.000 L 67.500 63.000 67.500 66.667 M94.083 66.667 L 90.420 70.333 102.043 70.333 L 113.667 70.333 113.667 66.667 L 113.667 63.000 105.707 63.000 L 97.747 63.000 94.083 66.667 M115.167 66.667 L 115.167 70.333 127.500 70.333 L 139.833 70.333 139.833 66.667 L 139.833 63.000 127.500 63.000 L 115.167 63.000 115.167 66.667 M141.333 66.667 L 141.333 70.333 142.583 70.333 L 143.833 70.333 143.833 66.667 L 143.833 63.000 142.583 63.000 L 141.333 63.000 141.333 66.667 M67.500 73.455 L 67.500 75.077 69.083 73.500 C 69.954 72.633,70.667 71.903,70.667 71.878 C 70.667 71.854,69.954 71.833,69.083 71.833 L 67.500 71.833 67.500 73.455 M86.917 73.833 L 84.922 75.833 85.834 75.500 C 88.687 74.457,92.134 75.851,93.563 78.625 L 93.842 79.167 96.921 79.167 L 100.000 79.167 100.000 75.500 L 100.000 71.833 94.456 71.833 L 88.911 71.833 86.917 73.833 M101.500 75.500 L 101.500 79.167 113.833 79.167 L 126.167 79.167 126.167 75.500 L 126.167 71.833 113.833 71.833 L 101.500 71.833 101.500 75.500 M127.667 75.500 L 127.667 79.167 135.750 79.167 L 143.833 79.167 143.833 75.500 L 143.833 71.833 135.750 71.833 L 127.667 71.833 127.667 75.500 M94.333 81.553 C 94.333 82.504,93.956 84.014,93.565 84.625 C 93.433 84.831,93.346 85.000,93.371 84.999 C 93.396 84.999,93.867 84.813,94.417 84.587 C 97.015 83.516,100.273 84.427,101.932 86.688 L 102.528 87.500 108.098 87.500 L 113.667 87.500 113.667 84.083 L 113.667 80.667 104.000 80.667 L 94.333 80.667 94.333 81.553 M115.167 84.083 L 115.167 87.500 127.500 87.500 L 139.833 87.500 139.833 84.083 L 139.833 80.667 127.500 80.667 L 115.167 80.667 115.167 84.083 M141.333 84.083 L 141.333 87.500 142.583 87.500 L 143.833 87.500 143.833 84.083 L 143.833 80.667 142.583 80.667 L 141.333 80.667 141.333 84.083 M103.141 90.710 C 103.094 91.960,103.001 92.418,102.650 93.126 C 102.175 94.086,102.177 94.110,102.716 93.757 C 104.842 92.364,108.169 92.957,110.295 95.108 L 111.507 96.333 118.837 96.333 L 126.167 96.333 126.167 92.750 L 126.167 89.167 114.683 89.167 L 103.199 89.167 103.141 90.710 M127.667 92.792 L 127.667 96.417 135.750 96.372 L 143.833 96.327 143.833 92.747 L 143.833 89.167 135.750 89.167 L 127.667 89.167 127.667 92.792 M111.968 99.708 C 111.890 101.628,111.635 102.311,110.472 103.708 L 109.813 104.500 111.740 104.500 L 113.667 104.500 113.667 101.250 L 113.667 98.000 112.852 98.000 L 112.038 98.000 111.968 99.708 M115.167 101.250 L 115.167 104.500 127.500 104.500 L 139.833 104.500 139.833 101.250 L 139.833 98.000 127.500 98.000 L 115.167 98.000 115.167 101.250 M141.333 101.250 L 141.333 104.500 142.583 104.500 L 143.833 104.500 143.833 101.250 L 143.833 98.000 142.583 98.000 L 141.333 98.000 141.333 101.250 M104.873 109.376 C 103.018 111.234,101.500 112.884,101.500 113.043 C 101.500 113.316,102.223 113.333,113.833 113.333 L 126.167 113.333 126.167 109.667 L 126.167 106.000 117.207 106.000 L 108.247 106.000 104.873 109.376 M127.667 109.667 L 127.667 113.333 135.750 113.333 L 143.833 113.333 143.833 109.667 L 143.833 106.000 135.750 106.000 L 127.667 106.000 127.667 109.667 M96.413 117.875 C 94.768 119.548,93.098 121.198,92.701 121.542 L 91.980 122.167 95.702 122.167 L 99.425 122.167 100.171 121.043 C 102.964 116.835,109.199 117.045,111.523 121.425 C 111.912 122.159,111.926 122.167,112.791 122.167 L 113.667 122.167 113.667 118.500 L 113.667 114.833 106.535 114.833 L 99.404 114.833 96.413 117.875 M115.167 118.500 L 115.167 122.167 127.500 122.167 L 139.833 122.167 139.833 118.500 L 139.833 114.833 127.500 114.833 L 115.167 114.833 115.167 118.500 M141.333 118.500 L 141.333 122.167 142.583 122.167 L 143.833 122.167 143.833 118.500 L 143.833 114.833 142.583 114.833 L 141.333 114.833 141.333 118.500 M89.000 124.250 L 88.083 124.826 93.625 124.830 L 99.167 124.833 99.167 124.250 L 99.167 123.667 94.542 123.670 L 89.917 123.674 89.000 124.250 M112.333 124.250 L 112.333 124.833 119.250 124.833 L 126.167 124.833 126.167 124.250 L 126.167 123.667 119.250 123.667 L 112.333 123.667 112.333 124.250 M127.667 124.250 L 127.667 124.833 135.750 124.833 L 143.833 124.833 143.833 124.250 L 143.833 123.667 135.750 123.667 L 127.667 123.667 127.667 124.250 M270.270 126.236 C 269.523 127.148,269.523 127.167,270.300 127.167 C 270.971 127.167,272.652 126.129,272.662 125.708 C 272.676 125.083,270.893 125.477,270.270 126.236 M208.742 127.721 C 204.120 129.502,205.238 136.172,210.158 136.165 C 214.334 136.159,216.196 131.031,212.954 128.464 C 211.804 127.553,210.003 127.235,208.742 127.721 M287.606 127.663 C 283.696 128.904,283.587 134.683,287.450 135.838 C 288.150 136.048,288.150 136.048,287.909 136.516 C 287.545 137.219,287.605 137.333,288.333 137.333 C 288.892 137.333,289.000 137.279,289.000 136.995 C 289.000 136.474,289.446 136.418,290.321 136.827 C 291.822 137.531,293.167 137.096,293.167 135.907 C 293.167 135.353,292.087 135.295,291.914 135.840 C 291.833 136.098,291.719 136.154,291.445 136.070 C 290.929 135.911,290.882 135.830,291.201 135.651 C 295.646 133.163,292.475 126.118,287.606 127.663 M335.574 127.737 C 335.323 127.920,335.247 128.184,335.238 128.903 L 335.227 129.833 335.755 129.833 C 336.623 129.833,337.216 128.229,336.540 127.708 C 336.191 127.439,335.972 127.446,335.574 127.737 M351.903 127.653 C 350.045 128.452,350.318 130.665,352.397 131.657 C 354.165 132.501,354.674 133.614,353.727 134.561 C 352.887 135.401,351.624 134.997,351.387 133.812 C 351.294 133.344,351.242 133.310,350.773 133.404 C 349.027 133.753,350.751 136.167,352.747 136.167 C 355.903 136.167,356.482 132.304,353.538 130.898 C 352.277 130.297,352.000 130.041,352.000 129.480 C 352.000 128.657,353.175 128.404,353.419 129.175 C 353.535 129.539,353.775 129.577,354.411 129.335 C 354.823 129.179,354.833 129.149,354.606 128.710 C 354.099 127.729,352.855 127.243,351.903 127.653 M150.872 131.875 L 150.917 136.083 153.042 136.130 L 155.167 136.177 155.167 135.588 L 155.167 135.000 153.667 135.000 L 152.167 135.000 152.167 131.333 L 152.167 127.667 151.497 127.667 L 150.828 127.667 150.872 131.875 M158.920 127.865 C 158.877 127.985,158.203 129.832,157.421 131.970 C 155.766 136.496,155.827 136.167,156.640 136.167 L 157.280 136.167 157.921 134.417 L 158.562 132.667 159.596 132.667 C 160.549 132.667,160.638 132.698,160.731 133.066 C 161.206 134.960,161.864 136.167,162.421 136.167 C 163.240 136.167,163.238 136.155,162.090 132.991 C 161.510 131.392,160.849 129.558,160.621 128.917 C 160.202 127.735,159.188 127.108,158.920 127.865 M168.000 131.927 L 168.000 136.187 168.625 136.135 L 169.250 136.083 169.298 134.814 L 169.347 133.545 170.275 133.449 C 172.886 133.180,174.077 130.420,172.364 128.610 C 171.620 127.823,171.147 127.667,169.508 127.667 L 168.000 127.667 168.000 131.927 M174.667 131.922 L 174.667 136.177 176.792 136.130 L 178.917 136.083 178.969 135.542 L 179.021 135.000 177.511 135.000 L 176.000 135.000 176.000 131.333 L 176.000 127.667 175.333 127.667 L 174.667 127.667 174.667 131.922 M182.748 127.875 C 182.707 127.990,182.034 129.832,181.253 131.968 C 179.600 136.492,179.660 136.167,180.473 136.167 L 181.113 136.167 181.754 134.417 L 182.395 132.667 183.406 132.668 L 184.417 132.669 185.012 134.376 C 185.594 136.046,185.619 136.085,186.158 136.137 C 187.138 136.233,187.080 136.001,184.237 128.375 C 183.965 127.647,182.952 127.307,182.748 127.875 M187.198 128.208 C 187.249 128.744,187.261 128.751,188.205 128.800 L 189.160 128.850 189.205 132.467 L 189.250 136.083 189.875 136.135 L 190.500 136.187 190.500 132.510 L 190.500 128.833 191.500 128.833 L 192.500 128.833 192.500 128.250 L 192.500 127.667 189.823 127.667 L 187.146 127.667 187.198 128.208 M193.833 131.921 L 193.833 136.176 196.208 136.130 L 198.583 136.083 198.636 135.542 L 198.688 135.000 196.927 135.000 L 195.167 135.000 195.167 133.756 L 195.167 132.512 196.875 132.464 L 198.583 132.417 198.636 131.875 L 198.688 131.333 196.927 131.333 L 195.167 131.333 195.167 130.089 L 195.167 128.845 196.875 128.797 L 198.583 128.750 198.636 128.208 L 198.688 127.667 196.261 127.667 L 193.833 127.667 193.833 131.921 M200.333 131.927 L 200.333 136.187 200.958 136.135 L 201.583 136.083 201.631 134.298 L 201.678 132.513 203.131 132.465 L 204.583 132.417 204.636 131.875 L 204.688 131.333 203.177 131.333 L 201.667 131.333 201.667 130.090 L 201.667 128.846 203.125 128.798 L 204.583 128.750 204.636 128.208 L 204.688 127.667 202.511 127.667 L 200.333 127.667 200.333 131.927 M216.167 131.927 L 216.167 136.187 216.792 136.135 L 217.417 136.083 217.465 134.792 C 217.534 132.962,217.923 132.971,219.126 134.833 C 219.969 136.137,220.003 136.167,220.661 136.167 C 221.518 136.167,221.508 136.078,220.479 134.552 L 219.624 133.286 220.227 132.768 C 222.625 130.707,221.128 127.667,217.717 127.667 L 216.167 127.667 216.167 131.927 M222.705 131.875 L 222.750 136.083 223.371 136.135 L 223.993 136.186 224.038 132.968 L 224.083 129.750 225.326 131.375 C 226.812 133.319,226.505 133.314,227.917 131.420 L 229.083 129.855 229.167 132.969 L 229.250 136.083 229.875 136.135 L 230.500 136.187 230.500 131.927 L 230.500 127.667 229.792 127.674 C 229.093 127.682,229.067 127.704,227.917 129.255 C 226.503 131.160,226.752 131.160,225.316 129.250 C 224.129 127.671,224.124 127.667,223.393 127.667 L 222.661 127.667 222.705 131.875 M232.205 131.875 L 232.250 136.083 234.583 136.083 L 236.917 136.083 236.969 135.542 L 237.021 135.000 235.261 135.000 L 233.500 135.000 233.500 133.756 L 233.500 132.512 235.208 132.464 L 236.917 132.417 236.969 131.875 L 237.021 131.333 235.261 131.333 L 233.500 131.333 233.500 130.089 L 233.500 128.845 235.208 128.797 L 236.917 128.750 236.969 128.208 L 237.021 127.667 234.591 127.667 L 232.161 127.667 232.205 131.875 M242.500 131.917 L 242.500 136.167 243.083 136.167 L 243.667 136.167 243.672 133.042 C 243.676 130.542,243.718 129.973,243.880 130.196 C 243.992 130.350,244.983 131.756,246.083 133.321 L 248.083 136.167 248.750 136.125 L 249.417 136.083 249.461 131.875 L 249.506 127.667 248.840 127.667 L 248.174 127.667 248.129 130.735 L 248.083 133.802 245.917 130.738 C 243.767 127.697,243.745 127.673,243.125 127.670 L 242.500 127.667 242.500 131.917 M251.196 130.903 L 251.250 134.139 251.750 134.844 C 252.856 136.403,254.877 136.638,256.223 135.364 C 257.116 134.520,257.167 134.276,257.167 130.842 L 257.167 127.667 256.500 127.667 L 255.833 127.667 255.833 130.821 L 255.833 133.974 255.321 134.487 C 254.733 135.074,253.979 135.167,253.353 134.728 C 252.634 134.224,252.500 133.563,252.500 130.505 L 252.500 127.667 251.821 127.667 L 251.141 127.667 251.196 130.903 M258.872 131.875 L 258.917 136.083 259.538 136.135 L 260.159 136.186 260.205 133.007 L 260.250 129.827 261.401 131.336 C 262.034 132.166,262.610 132.882,262.682 132.926 C 262.753 132.970,263.361 132.288,264.031 131.410 L 265.250 129.813 265.295 133.000 L 265.341 136.186 265.962 136.135 L 266.583 136.083 266.628 131.875 L 266.672 127.667 265.948 127.667 C 265.286 127.667,265.179 127.728,264.713 128.375 C 264.433 128.765,263.870 129.511,263.463 130.034 L 262.724 130.985 261.494 129.326 C 260.269 127.671,260.263 127.667,259.547 127.667 L 258.828 127.667 258.872 131.875 M268.333 131.921 L 268.333 136.176 270.708 136.130 L 273.083 136.083 273.136 135.542 L 273.188 135.000 271.427 135.000 L 269.667 135.000 269.667 133.756 L 269.667 132.512 271.375 132.464 L 273.083 132.417 273.136 131.875 L 273.188 131.333 271.427 131.333 L 269.667 131.333 269.667 130.089 L 269.667 128.845 271.375 128.797 L 273.083 128.750 273.136 128.208 L 273.188 127.667 270.761 127.667 L 268.333 127.667 268.333 131.921 M274.833 131.927 L 274.833 136.187 275.458 136.135 L 276.083 136.083 276.132 134.792 C 276.202 132.944,276.620 132.955,277.813 134.833 C 278.642 136.139,278.674 136.167,279.330 136.167 C 280.177 136.167,280.172 136.119,279.169 134.553 L 278.337 133.256 278.856 132.849 C 281.353 130.895,279.799 127.667,276.360 127.667 L 274.833 127.667 274.833 131.927 M281.667 131.927 L 281.667 136.187 282.292 136.135 L 282.917 136.083 282.961 131.875 L 283.006 127.667 282.336 127.667 L 281.667 127.667 281.667 131.927 M294.862 130.875 C 294.908 133.545,294.966 134.173,295.208 134.616 C 296.100 136.248,298.386 136.675,299.762 135.467 C 300.784 134.569,300.833 134.358,300.833 130.842 L 300.833 127.667 300.167 127.667 L 299.500 127.667 299.500 130.675 C 299.500 133.032,299.446 133.789,299.248 134.170 C 298.747 135.138,297.664 135.290,296.794 134.514 L 296.250 134.028 296.195 130.847 L 296.141 127.667 295.474 127.667 L 294.808 127.667 294.862 130.875 M302.667 131.917 L 302.667 136.167 305.000 136.167 L 307.333 136.167 307.333 135.583 L 307.333 135.000 305.667 135.000 L 304.000 135.000 304.000 133.750 L 304.000 132.500 305.667 132.500 L 307.333 132.500 307.333 131.917 L 307.333 131.333 305.667 131.333 L 304.000 131.333 304.000 130.083 L 304.000 128.833 305.667 128.833 L 307.333 128.833 307.333 128.250 L 307.333 127.667 305.000 127.667 L 302.667 127.667 302.667 131.917 M312.833 131.921 L 312.833 136.211 314.458 136.129 C 320.979 135.801,321.135 127.914,314.625 127.691 L 312.833 127.630 312.833 131.921 M320.833 131.917 L 320.833 136.167 323.167 136.167 L 325.500 136.167 325.500 135.583 L 325.500 135.000 323.833 135.000 L 322.167 135.000 322.167 133.750 L 322.167 132.500 323.833 132.500 L 325.500 132.500 325.500 131.917 L 325.500 131.333 323.833 131.333 L 322.167 131.333 322.167 130.083 L 322.167 128.833 323.833 128.833 L 325.500 128.833 325.500 128.250 L 325.500 127.667 323.167 127.667 L 320.833 127.667 320.833 131.917 M331.000 131.922 L 331.000 136.177 333.125 136.130 L 335.250 136.083 335.302 135.542 L 335.354 135.000 333.844 135.000 L 332.333 135.000 332.333 131.333 L 332.333 127.667 331.667 127.667 L 331.000 127.667 331.000 131.922 M338.372 131.875 L 338.417 136.083 339.042 136.135 L 339.667 136.187 339.667 131.927 L 339.667 127.667 338.997 127.667 L 338.328 127.667 338.372 131.875 M341.539 131.875 L 341.583 136.083 342.205 136.135 L 342.826 136.186 342.871 133.164 L 342.917 130.143 345.061 133.155 L 347.206 136.167 347.853 136.167 L 348.500 136.167 348.500 131.917 L 348.500 127.667 347.837 127.667 L 347.174 127.667 347.129 130.674 L 347.083 133.681 344.944 130.674 L 342.806 127.667 342.150 127.667 L 341.494 127.667 341.539 131.875 M359.166 128.042 C 358.693 129.150,356.333 135.715,356.333 135.923 C 356.333 136.096,356.526 136.167,357.000 136.167 C 357.367 136.167,357.667 136.091,357.667 135.998 C 357.667 135.906,357.940 135.115,358.275 134.241 L 358.883 132.652 359.876 132.701 L 360.869 132.750 361.493 134.417 L 362.116 136.083 362.766 136.083 C 363.561 136.083,363.648 136.520,361.876 131.625 L 360.442 127.667 359.884 127.667 C 359.464 127.667,359.287 127.759,359.166 128.042 M363.833 128.250 L 363.833 128.833 364.747 128.833 L 365.660 128.833 365.705 132.458 L 365.750 136.083 366.375 136.135 L 367.000 136.187 367.000 132.510 L 367.000 128.833 368.000 128.833 L 369.000 128.833 369.000 128.250 L 369.000 127.667 366.417 127.667 L 363.833 127.667 363.833 128.250 M211.297 128.926 C 213.010 129.641,213.749 131.677,212.903 133.350 C 212.075 134.988,209.769 135.514,208.373 134.384 C 205.577 132.122,208.022 127.558,211.297 128.926 M290.734 129.289 C 291.612 129.909,292.046 130.788,292.036 131.927 C 292.012 134.574,288.937 135.980,287.000 134.230 C 284.096 131.606,287.548 127.037,290.734 129.289 M171.105 129.129 C 172.463 130.228,171.819 132.167,170.096 132.167 L 169.333 132.167 169.333 130.500 L 169.333 128.833 170.042 128.837 C 170.460 128.839,170.896 128.959,171.105 129.129 M219.482 129.317 C 220.631 130.390,219.871 132.167,218.263 132.167 L 217.500 132.167 217.500 130.500 L 217.500 128.833 218.232 128.833 C 218.811 128.833,219.074 128.935,219.482 129.317 M278.179 129.321 C 279.283 130.424,278.517 132.167,276.929 132.167 L 276.167 132.167 276.167 130.500 L 276.167 128.833 276.929 128.833 C 277.550 128.833,277.783 128.924,278.179 129.321 M316.281 129.157 C 319.103 130.439,318.219 134.505,315.026 134.929 L 314.167 135.043 314.167 131.938 L 314.167 128.833 314.875 128.837 C 315.265 128.839,315.897 128.983,316.281 129.157 M159.891 130.750 L 160.146 131.500 159.583 131.500 L 159.020 131.500 159.276 130.750 C 159.416 130.337,159.555 130.000,159.583 130.000 C 159.612 130.000,159.750 130.337,159.891 130.750 M183.722 130.792 L 183.997 131.500 183.425 131.500 L 182.854 131.500 183.112 130.741 C 183.254 130.323,183.388 130.005,183.408 130.033 C 183.429 130.061,183.570 130.402,183.722 130.792 M360.321 131.292 C 360.328 131.416,360.127 131.500,359.822 131.500 C 359.274 131.500,359.269 131.450,359.708 130.333 L 359.872 129.917 360.090 130.500 C 360.210 130.821,360.314 131.177,360.321 131.292 " stroke="none" fill="#1d2438" fill-rule="evenodd"></path><path id="path4" d="M100.071 23.417 C 100.071 25.433,100.095 26.235,100.125 25.199 C 100.154 24.163,100.154 22.513,100.124 21.532 C 100.095 20.552,100.071 21.400,100.071 23.417 M141.238 32.167 C 141.238 34.229,141.262 35.073,141.291 34.042 C 141.320 33.010,141.320 31.323,141.291 30.292 C 141.262 29.260,141.238 30.104,141.238 32.167 M118.000 33.417 C 118.311 33.737,118.603 34.000,118.649 34.000 C 118.695 34.000,118.478 33.737,118.167 33.417 C 117.856 33.096,117.564 32.833,117.518 32.833 C 117.472 32.833,117.689 33.096,118.000 33.417 M100.067 39.917 C 100.068 41.383,100.093 41.961,100.124 41.200 C 100.155 40.440,100.155 39.240,100.124 38.534 C 100.093 37.828,100.067 38.450,100.067 39.917 M141.244 49.417 L 141.250 52.750 142.500 52.761 L 143.750 52.771 142.545 52.712 L 141.340 52.653 141.290 49.368 L 141.239 46.083 141.244 49.417 M109.121 51.463 C 108.504 52.084,108.000 52.646,108.000 52.713 C 108.000 52.779,109.294 52.817,110.875 52.796 L 113.750 52.759 110.925 52.708 L 108.101 52.658 109.254 51.496 C 109.889 50.856,110.370 50.333,110.324 50.333 C 110.279 50.333,109.737 50.841,109.121 51.463 M121.833 52.708 C 121.833 52.777,125.902 52.816,130.875 52.795 C 135.848 52.775,138.492 52.737,136.750 52.713 C 128.613 52.597,121.833 52.595,121.833 52.708 M72.387 52.792 C 75.121 52.817,79.546 52.817,82.220 52.792 C 84.895 52.766,82.658 52.745,77.250 52.745 C 71.842 52.745,69.653 52.766,72.387 52.792 M88.792 52.784 C 88.998 52.824,89.335 52.824,89.542 52.784 C 89.748 52.745,89.579 52.712,89.167 52.712 C 88.754 52.712,88.585 52.745,88.792 52.784 M115.544 52.786 C 115.797 52.825,116.172 52.824,116.377 52.784 C 116.582 52.744,116.375 52.713,115.917 52.714 C 115.458 52.716,115.291 52.748,115.544 52.786 M103.917 56.667 C 102.544 58.042,101.458 59.167,101.504 59.167 C 101.550 59.167,102.711 58.042,104.083 56.667 C 105.456 55.292,106.542 54.167,106.496 54.167 C 106.450 54.167,105.289 55.292,103.917 56.667 M111.372 59.000 C 111.372 59.321,111.406 59.452,111.448 59.292 C 111.490 59.131,111.490 58.869,111.448 58.708 C 111.406 58.548,111.372 58.679,111.372 59.000 M99.734 60.859 C 99.660 60.978,99.688 61.006,99.808 60.933 C 99.928 60.858,100.000 60.937,100.000 61.146 C 100.000 61.378,99.863 61.501,99.542 61.555 C 99.106 61.628,99.108 61.630,99.583 61.607 C 99.998 61.587,100.092 61.505,100.136 61.125 C 100.189 60.662,99.953 60.505,99.734 60.859 M69.708 61.625 C 70.969 61.653,73.031 61.653,74.292 61.625 C 75.552 61.596,74.521 61.573,72.000 61.573 C 69.479 61.573,68.448 61.596,69.708 61.625 M78.708 61.623 C 79.144 61.657,79.856 61.657,80.292 61.623 C 80.727 61.588,80.371 61.560,79.500 61.560 C 78.629 61.560,78.273 61.588,78.708 61.623 M107.625 61.625 C 111.040 61.650,116.627 61.650,120.042 61.625 C 123.456 61.600,120.662 61.579,113.833 61.579 C 107.004 61.579,104.210 61.600,107.625 61.625 M131.613 61.625 C 133.830 61.651,137.505 61.651,139.780 61.625 C 142.055 61.599,140.242 61.577,135.750 61.577 C 131.258 61.577,129.397 61.599,131.613 61.625 M141.238 66.667 C 141.238 68.729,141.262 69.573,141.291 68.542 C 141.320 67.510,141.320 65.823,141.291 64.792 C 141.262 63.760,141.238 64.604,141.238 66.667 M69.163 73.458 L 67.583 75.083 69.208 73.503 C 70.718 72.036,70.909 71.833,70.788 71.833 C 70.764 71.833,70.032 72.565,69.163 73.458 M100.071 75.500 C 100.071 77.563,100.095 78.406,100.124 77.375 C 100.154 76.344,100.154 74.656,100.124 73.625 C 100.095 72.594,100.071 73.438,100.071 75.500 M141.245 84.083 L 141.250 87.583 142.500 87.594 L 143.750 87.604 142.545 87.545 L 141.340 87.486 141.290 84.035 L 141.239 80.583 141.245 84.083 M102.477 87.544 C 102.547 87.614,105.112 87.651,108.177 87.627 L 113.750 87.583 108.050 87.500 C 104.915 87.454,102.407 87.474,102.477 87.544 M121.292 87.625 C 124.706 87.650,130.294 87.650,133.708 87.625 C 137.123 87.600,134.329 87.579,127.500 87.579 C 120.671 87.579,117.877 87.600,121.292 87.625 M103.111 89.111 C 103.050 89.172,103.001 89.303,103.003 89.403 C 103.004 89.511,103.058 89.500,103.137 89.376 C 103.239 89.215,105.821 89.159,114.759 89.125 L 126.250 89.081 114.736 89.040 C 108.403 89.018,103.172 89.050,103.111 89.111 M131.613 89.125 C 133.830 89.151,137.505 89.151,139.780 89.125 C 142.055 89.099,140.242 89.077,135.750 89.077 C 131.258 89.077,129.397 89.099,131.613 89.125 M111.310 96.377 C 111.380 96.446,114.770 96.484,118.843 96.460 L 126.250 96.417 118.717 96.333 C 114.573 96.287,111.240 96.307,111.310 96.377 M131.792 96.458 C 134.015 96.484,137.652 96.484,139.875 96.458 C 142.098 96.432,140.279 96.410,135.833 96.410 C 131.387 96.410,129.569 96.432,131.792 96.458 M112.375 97.953 C 112.627 97.991,113.040 97.991,113.292 97.953 C 113.544 97.915,113.337 97.883,112.833 97.883 C 112.329 97.883,112.123 97.915,112.375 97.953 M121.292 97.958 C 124.706 97.983,130.294 97.983,133.708 97.958 C 137.123 97.933,134.329 97.912,127.500 97.912 C 120.671 97.912,117.877 97.933,121.292 97.958 M141.241 98.047 C 141.196 98.164,141.181 99.683,141.208 101.422 L 141.258 104.583 141.296 101.299 L 141.333 98.014 142.625 97.957 L 143.917 97.900 142.620 97.867 C 141.694 97.843,141.299 97.894,141.241 98.047 M141.238 118.500 C 141.238 120.563,141.262 121.406,141.291 120.375 C 141.320 119.344,141.320 117.656,141.291 116.625 C 141.262 115.594,141.238 116.438,141.238 118.500 " stroke="none" fill="#2f3547" fill-rule="evenodd"></path><path id="path5" d="M76.165 66.458 L 72.750 69.917 76.208 66.502 C 78.110 64.623,79.667 63.067,79.667 63.043 C 79.667 62.925,79.338 63.245,76.165 66.458 M96.744 63.875 L 95.917 64.750 96.792 63.923 C 97.605 63.154,97.743 63.000,97.619 63.000 C 97.592 63.000,97.199 63.394,96.744 63.875 M93.664 66.958 L 91.583 69.083 93.708 67.003 C 95.682 65.070,95.909 64.833,95.789 64.833 C 95.765 64.833,94.809 65.790,93.664 66.958 M94.214 81.583 C 94.216 82.042,94.248 82.209,94.286 81.956 C 94.325 81.703,94.324 81.328,94.284 81.123 C 94.244 80.918,94.213 81.125,94.214 81.583 M105.460 93.118 C 105.668 93.158,105.968 93.156,106.127 93.115 C 106.286 93.073,106.117 93.040,105.750 93.042 C 105.383 93.044,105.253 93.078,105.460 93.118 " stroke="none" fill="#5a454d" fill-rule="evenodd"></path><path id="path6" d="M69.958 19.791 C 71.173 19.820,73.160 19.820,74.375 19.791 C 75.590 19.763,74.596 19.739,72.167 19.739 C 69.737 19.739,68.744 19.763,69.958 19.791 M77.908 19.880 C 77.863 19.997,77.848 21.628,77.875 23.505 L 77.924 26.917 77.962 23.376 L 78.000 19.836 89.042 19.792 L 100.083 19.748 89.036 19.707 C 80.199 19.675,77.973 19.709,77.908 19.880 M107.625 19.792 C 111.040 19.817,116.627 19.817,120.042 19.792 C 123.456 19.766,120.662 19.746,113.833 19.746 C 107.004 19.746,104.210 19.766,107.625 19.792 M131.613 19.791 C 133.830 19.818,137.505 19.818,139.780 19.792 C 142.055 19.765,140.242 19.744,135.750 19.744 C 131.258 19.744,129.397 19.765,131.613 19.791 M105.208 32.786 C 105.460 32.824,105.873 32.824,106.125 32.786 C 106.377 32.748,106.171 32.717,105.667 32.717 C 105.162 32.717,104.956 32.748,105.208 32.786 M77.904 41.000 C 77.904 42.971,77.928 43.777,77.958 42.792 C 77.987 41.806,77.987 40.194,77.958 39.208 C 77.928 38.223,77.904 39.029,77.904 41.000 M72.458 46.125 C 75.140 46.151,79.527 46.151,82.208 46.125 C 84.890 46.099,82.696 46.078,77.333 46.078 C 71.971 46.078,69.777 46.099,72.458 46.125 M90.458 46.125 C 91.581 46.153,93.419 46.153,94.542 46.125 C 95.665 46.096,94.746 46.072,92.500 46.072 C 90.254 46.072,89.335 46.096,90.458 46.125 M112.295 46.121 C 112.594 46.158,113.044 46.157,113.295 46.119 C 113.545 46.081,113.300 46.051,112.750 46.052 C 112.200 46.053,111.995 46.084,112.295 46.121 M116.048 46.123 C 116.578 46.157,117.403 46.156,117.881 46.123 C 118.359 46.089,117.925 46.062,116.917 46.062 C 115.908 46.063,115.517 46.090,116.048 46.123 M127.303 46.125 C 129.624 46.151,133.374 46.151,135.637 46.125 C 137.899 46.099,136.000 46.077,131.417 46.077 C 126.833 46.077,124.982 46.099,127.303 46.125 M141.963 46.122 C 142.355 46.157,142.955 46.157,143.296 46.121 C 143.637 46.085,143.317 46.057,142.583 46.057 C 141.850 46.058,141.571 46.087,141.963 46.122 M77.905 57.833 C 77.905 59.896,77.929 60.740,77.958 59.708 C 77.987 58.677,77.987 56.990,77.958 55.958 C 77.929 54.927,77.905 55.771,77.905 57.833 " stroke="none" fill="#3a5169" fill-rule="evenodd"></path><path id="path7" d="" stroke="none" fill="#0000ff" fill-rule="evenodd"></path><path id="path8" d="M77.205 28.458 L 86.994 28.503 87.043 32.168 L 87.093 35.834 87.088 32.125 L 87.083 28.417 77.250 28.415 L 67.417 28.413 77.205 28.458 M92.136 28.458 C 94.182 28.485,97.482 28.485,99.470 28.458 C 101.457 28.432,99.783 28.410,95.750 28.410 C 91.717 28.410,90.091 28.432,92.136 28.458 M108.372 28.427 C 108.428 28.484,109.638 28.520,111.062 28.509 L 113.649 28.488 113.714 29.328 L 113.779 30.169 113.764 29.293 L 113.750 28.417 111.010 28.371 C 109.502 28.345,108.315 28.371,108.372 28.427 M121.292 28.458 C 124.706 28.483,130.294 28.483,133.708 28.458 C 137.123 28.433,134.329 28.412,127.500 28.412 C 120.671 28.412,117.877 28.433,121.292 28.458 M141.963 28.456 C 142.355 28.491,142.955 28.490,143.296 28.454 C 143.637 28.419,143.317 28.390,142.583 28.390 C 141.850 28.391,141.571 28.420,141.963 28.456 M69.708 37.291 C 70.969 37.320,73.031 37.320,74.292 37.291 C 75.552 37.263,74.521 37.240,72.000 37.240 C 69.479 37.240,68.448 37.263,69.708 37.291 M81.053 37.291 C 82.777 37.319,85.552 37.319,87.219 37.291 C 88.886 37.264,87.475 37.242,84.083 37.242 C 80.692 37.242,79.328 37.264,81.053 37.291 M96.882 37.290 C 97.504 37.323,98.479 37.322,99.049 37.290 C 99.618 37.257,99.108 37.231,97.917 37.231 C 96.725 37.232,96.259 37.258,96.882 37.290 M104.958 37.291 C 106.906 37.318,110.094 37.318,112.042 37.291 C 113.990 37.265,112.396 37.243,108.500 37.243 C 104.604 37.243,103.010 37.265,104.958 37.291 M122.300 37.291 C 123.060 37.322,124.260 37.322,124.966 37.290 C 125.672 37.259,125.050 37.234,123.583 37.234 C 122.117 37.234,121.539 37.260,122.300 37.291 M131.613 37.291 C 133.830 37.318,137.505 37.318,139.780 37.292 C 142.055 37.265,140.242 37.244,135.750 37.244 C 131.258 37.244,129.397 37.265,131.613 37.291 M87.070 49.417 C 87.070 51.250,87.094 52.023,87.124 51.134 C 87.154 50.245,87.154 48.745,87.124 47.801 C 87.095 46.856,87.070 47.583,87.070 49.417 M113.737 49.417 C 113.737 51.250,113.761 52.023,113.791 51.134 C 113.821 50.245,113.821 48.745,113.791 47.801 C 113.761 46.856,113.737 47.583,113.737 49.417 M84.750 57.833 C 82.827 59.758,81.290 61.333,81.336 61.333 C 81.382 61.333,82.993 59.758,84.917 57.833 C 86.840 55.908,88.376 54.333,88.330 54.333 C 88.285 54.333,86.673 55.908,84.750 57.833 M113.738 66.667 C 113.738 68.729,113.762 69.573,113.791 68.542 C 113.820 67.510,113.820 65.823,113.791 64.792 C 113.762 63.760,113.738 64.604,113.738 66.667 M90.333 70.375 C 90.333 70.444,95.565 70.483,101.958 70.461 C 108.352 70.440,111.708 70.403,109.417 70.378 C 98.581 70.263,90.333 70.262,90.333 70.375 M68.701 70.457 C 69.316 70.489,70.366 70.489,71.034 70.457 C 71.703 70.426,71.200 70.399,69.917 70.399 C 68.633 70.399,68.086 70.425,68.701 70.457 M121.375 70.458 C 124.744 70.483,130.256 70.483,133.625 70.458 C 136.994 70.433,134.237 70.412,127.500 70.412 C 120.763 70.412,118.006 70.433,121.375 70.458 M142.042 70.455 C 142.385 70.491,142.948 70.491,143.292 70.455 C 143.635 70.419,143.354 70.389,142.667 70.389 C 141.979 70.389,141.698 70.419,142.042 70.455 M86.581 74.042 L 84.417 76.250 86.625 74.086 C 87.840 72.895,88.833 71.902,88.833 71.877 C 88.833 71.758,88.591 71.990,86.581 74.042 M95.375 79.291 C 96.269 79.321,97.731 79.321,98.625 79.291 C 99.519 79.261,98.787 79.236,97.000 79.236 C 95.212 79.236,94.481 79.261,95.375 79.291 M107.625 79.292 C 111.040 79.317,116.627 79.317,120.042 79.292 C 123.456 79.266,120.662 79.246,113.833 79.246 C 107.004 79.246,104.210 79.266,107.625 79.292 M131.792 79.292 C 134.015 79.318,137.652 79.318,139.875 79.292 C 142.098 79.265,140.279 79.244,135.833 79.244 C 131.387 79.244,129.569 79.265,131.792 79.292 M113.737 84.083 C 113.737 86.008,113.762 86.773,113.791 85.783 C 113.821 84.792,113.821 83.217,113.791 82.283 C 113.761 81.348,113.737 82.158,113.737 84.083 M248.708 89.291 C 249.510 89.321,250.823 89.321,251.625 89.291 C 252.427 89.260,251.771 89.235,250.167 89.235 C 248.563 89.235,247.906 89.260,248.708 89.291 M113.704 101.208 L 113.667 104.500 111.724 104.500 L 109.782 104.500 110.099 104.125 L 110.417 103.750 110.042 104.067 C 109.412 104.600,109.592 104.667,111.672 104.667 C 114.079 104.667,113.854 105.049,113.792 101.078 L 113.742 97.917 113.704 101.208 M121.292 104.625 C 124.706 104.650,130.294 104.650,133.708 104.625 C 137.123 104.600,134.329 104.579,127.500 104.579 C 120.671 104.579,117.877 104.600,121.292 104.625 M141.963 104.622 C 142.355 104.657,142.955 104.657,143.296 104.621 C 143.637 104.585,143.317 104.557,142.583 104.557 C 141.850 104.558,141.571 104.587,141.963 104.622 M106.663 107.458 L 105.250 108.917 106.708 107.504 C 108.063 106.191,108.243 106.000,108.121 106.000 C 108.096 106.000,107.440 106.656,106.663 107.458 M104.333 109.750 C 103.928 110.162,103.635 110.500,103.681 110.500 C 103.726 110.500,104.095 110.162,104.500 109.750 C 104.905 109.337,105.199 109.000,105.153 109.000 C 105.107 109.000,104.738 109.337,104.333 109.750 M107.625 113.458 C 111.040 113.483,116.627 113.483,120.042 113.458 C 123.456 113.433,120.662 113.412,113.833 113.412 C 107.004 113.412,104.210 113.433,107.625 113.458 M131.613 113.458 C 133.830 113.484,137.505 113.484,139.780 113.458 C 142.055 113.432,140.242 113.411,135.750 113.411 C 131.258 113.410,129.397 113.432,131.613 113.458 M113.738 118.500 C 113.738 120.563,113.762 121.406,113.791 120.375 C 113.820 119.344,113.820 117.656,113.791 116.625 C 113.762 115.594,113.738 116.438,113.738 118.500 " stroke="none" fill="#5b606f" fill-rule="evenodd"></path><path id="path9" d="M127.571 23.417 C 127.571 25.433,127.595 26.235,127.625 25.199 C 127.654 24.163,127.654 22.513,127.624 21.532 C 127.595 20.552,127.571 21.400,127.571 23.417 M127.571 41.000 C 127.571 43.063,127.595 43.906,127.624 42.875 C 127.654 41.844,127.654 40.156,127.624 39.125 C 127.595 38.094,127.571 38.938,127.571 41.000 M93.665 48.958 L 90.917 51.750 93.708 49.002 C 95.244 47.490,96.500 46.234,96.500 46.210 C 96.500 46.091,96.218 46.365,93.665 48.958 M127.571 57.833 C 127.571 59.896,127.595 60.740,127.624 59.708 C 127.654 58.677,127.654 56.990,127.624 55.958 C 127.595 54.927,127.571 55.771,127.571 57.833 M127.571 75.500 C 127.571 77.563,127.595 78.406,127.624 77.375 C 127.654 76.344,127.654 74.656,127.624 73.625 C 127.595 72.594,127.571 73.438,127.571 75.500 M127.571 92.750 C 127.572 94.858,127.595 95.698,127.625 94.616 C 127.654 93.533,127.654 91.808,127.624 90.782 C 127.595 89.756,127.571 90.642,127.571 92.750 M127.571 109.667 C 127.571 111.729,127.595 112.573,127.624 111.542 C 127.654 110.510,127.654 108.823,127.624 107.792 C 127.595 106.760,127.571 107.604,127.571 109.667 M101.906 112.208 L 101.417 112.750 101.958 112.260 C 102.256 111.991,102.500 111.748,102.500 111.719 C 102.500 111.590,102.362 111.703,101.906 112.208 M97.331 116.792 L 95.417 118.750 97.375 116.836 C 98.452 115.783,99.333 114.902,99.333 114.878 C 99.333 114.758,99.108 114.973,97.331 116.792 M91.833 122.208 C 91.833 122.277,93.577 122.318,95.708 122.299 C 99.589 122.265,99.138 122.207,94.375 122.126 C 92.977 122.103,91.833 122.140,91.833 122.208 M112.295 122.287 C 112.594 122.325,113.044 122.324,113.295 122.286 C 113.545 122.248,113.300 122.217,112.750 122.218 C 112.200 122.219,111.995 122.250,112.295 122.287 M121.292 122.292 C 124.706 122.317,130.294 122.317,133.708 122.292 C 137.123 122.266,134.329 122.246,127.500 122.246 C 120.671 122.246,117.877 122.266,121.292 122.292 M141.963 122.289 C 142.355 122.324,142.955 122.324,143.296 122.288 C 143.637 122.252,143.317 122.223,142.583 122.224 C 141.850 122.224,141.571 122.254,141.963 122.289 M92.302 123.625 C 93.614 123.653,95.714 123.653,96.968 123.625 C 98.223 123.596,97.150 123.573,94.583 123.573 C 92.017 123.573,90.990 123.596,92.302 123.625 M115.803 123.625 C 117.757 123.652,120.907 123.651,122.803 123.625 C 124.699 123.598,123.100 123.576,119.250 123.576 C 115.400 123.576,113.849 123.598,115.803 123.625 M127.566 123.736 C 127.516 123.866,127.507 124.184,127.546 124.444 C 127.606 124.843,127.621 124.819,127.642 124.293 L 127.667 123.670 135.792 123.625 L 143.917 123.580 135.786 123.540 C 128.903 123.506,127.642 123.536,127.566 123.736 " stroke="none" fill="#717581" fill-rule="evenodd"></path><path id="path10" d="" stroke="none" fill="#5555ff" fill-rule="evenodd"></path><path id="path11" d="M96.295 84.287 C 96.594 84.325,97.044 84.324,97.295 84.286 C 97.545 84.248,97.300 84.217,96.750 84.218 C 96.200 84.219,95.995 84.250,96.295 84.287 M103.045 90.500 C 103.045 90.912,103.078 91.081,103.118 90.875 C 103.157 90.669,103.157 90.331,103.118 90.125 C 103.078 89.919,103.045 90.087,103.045 90.500 " stroke="none" fill="#9e6964" fill-rule="evenodd"></path><path id="path12" d="M90.625 124.958 C 92.206 124.985,94.794 124.985,96.375 124.958 C 97.956 124.931,96.662 124.908,93.500 124.908 C 90.337 124.908,89.044 124.931,90.625 124.958 M115.803 124.958 C 117.757 124.985,120.907 124.985,122.803 124.958 C 124.699 124.931,123.100 124.910,119.250 124.910 C 115.400 124.910,113.849 124.932,115.803 124.958 M131.613 124.958 C 133.830 124.984,137.505 124.984,139.780 124.958 C 142.055 124.932,140.242 124.911,135.750 124.911 C 131.258 124.910,129.397 124.932,131.613 124.958 " stroke="none" fill="#6190ac" fill-rule="evenodd"></path><path id="path13" d="" stroke="none" fill="#ff0000" fill-rule="evenodd"></path><path id="path14" d="" stroke="none" fill="#ab847f" fill-rule="evenodd"></path><path id="path15" d="" stroke="none" fill="#3399ff" fill-rule="evenodd"></path><path id="path16" d="M126.238 23.250 C 126.238 25.267,126.262 26.069,126.291 25.032 C 126.320 23.996,126.320 22.346,126.291 21.366 C 126.262 20.385,126.238 21.233,126.238 23.250 M69.708 27.125 C 70.969 27.153,73.031 27.153,74.292 27.125 C 75.552 27.096,74.521 27.073,72.000 27.073 C 69.479 27.073,68.448 27.096,69.708 27.125 M83.554 27.125 C 86.654 27.150,91.679 27.150,94.720 27.125 C 97.762 27.099,95.225 27.079,89.083 27.079 C 82.942 27.079,80.453 27.100,83.554 27.125 M107.625 27.125 C 111.040 27.150,116.627 27.150,120.042 27.125 C 123.456 27.100,120.662 27.079,113.833 27.079 C 107.004 27.079,104.210 27.100,107.625 27.125 M131.613 27.125 C 133.830 27.151,137.505 27.151,139.780 27.125 C 142.055 27.099,140.242 27.077,135.750 27.077 C 131.258 27.077,129.397 27.099,131.613 27.125 M115.057 29.750 C 115.058 30.483,115.087 30.763,115.122 30.371 C 115.157 29.979,115.157 29.379,115.121 29.037 C 115.085 28.696,115.057 29.017,115.057 29.750 M72.387 35.958 C 75.121 35.984,79.546 35.984,82.220 35.958 C 84.895 35.932,82.658 35.911,77.250 35.911 C 71.842 35.911,69.653 35.933,72.387 35.958 M89.125 35.955 C 89.515 35.990,90.152 35.990,90.542 35.955 C 90.931 35.920,90.612 35.892,89.833 35.892 C 89.054 35.892,88.735 35.920,89.125 35.955 M101.303 35.958 C 103.624 35.984,107.374 35.984,109.637 35.958 C 111.899 35.932,110.000 35.911,105.417 35.911 C 100.833 35.911,98.982 35.932,101.303 35.958 M125.042 35.958 C 127.769 35.984,132.231 35.984,134.958 35.958 C 137.685 35.933,135.454 35.912,130.000 35.912 C 124.546 35.912,122.315 35.933,125.042 35.958 M141.963 35.956 C 142.355 35.991,142.955 35.990,143.296 35.954 C 143.637 35.919,143.317 35.890,142.583 35.890 C 141.850 35.891,141.571 35.920,141.963 35.956 M126.237 41.000 C 126.237 42.971,126.262 43.777,126.291 42.792 C 126.321 41.806,126.321 40.194,126.291 39.208 C 126.262 38.223,126.237 39.029,126.237 41.000 M115.070 49.500 C 115.070 51.379,115.095 52.148,115.124 51.208 C 115.154 50.269,115.154 48.731,115.124 47.792 C 115.095 46.852,115.070 47.621,115.070 49.500 M108.333 52.083 C 107.928 52.496,107.635 52.833,107.681 52.833 C 107.726 52.833,108.095 52.496,108.500 52.083 C 108.905 51.671,109.199 51.333,109.153 51.333 C 109.107 51.333,108.738 51.671,108.333 52.083 M105.740 54.708 L 105.250 55.250 105.792 54.760 C 106.090 54.491,106.333 54.248,106.333 54.219 C 106.333 54.090,106.196 54.203,105.740 54.708 M126.238 58.000 C 126.238 60.063,126.262 60.906,126.291 59.875 C 126.320 58.844,126.320 57.156,126.291 56.125 C 126.262 55.094,126.238 55.938,126.238 58.000 M104.573 55.875 L 104.083 56.417 104.625 55.927 C 104.923 55.658,105.167 55.414,105.167 55.385 C 105.167 55.257,105.029 55.370,104.573 55.875 M115.071 66.667 C 115.071 68.729,115.095 69.573,115.124 68.542 C 115.154 67.510,115.154 65.823,115.124 64.792 C 115.095 63.760,115.071 64.604,115.071 66.667 M126.237 75.500 C 126.237 77.471,126.262 78.277,126.291 77.292 C 126.321 76.306,126.321 74.694,126.291 73.708 C 126.262 72.723,126.237 73.529,126.237 75.500 M99.054 80.625 C 101.787 80.651,106.212 80.651,108.887 80.625 C 111.562 80.599,109.325 80.578,103.917 80.578 C 98.508 80.578,96.320 80.599,99.054 80.625 M115.075 80.713 C 115.030 80.830,115.015 82.461,115.042 84.338 L 115.091 87.750 115.129 84.209 L 115.167 80.669 127.542 80.625 L 139.917 80.581 127.536 80.541 C 117.617 80.508,115.140 80.542,115.075 80.713 M141.963 80.622 C 142.355 80.657,142.955 80.657,143.296 80.621 C 143.637 80.585,143.317 80.557,142.583 80.557 C 141.850 80.558,141.571 80.587,141.963 80.622 M126.238 92.917 C 126.238 94.933,126.262 95.735,126.291 94.699 C 126.320 93.663,126.320 92.013,126.291 91.032 C 126.262 90.052,126.238 90.900,126.238 92.917 M115.070 101.167 C 115.070 103.046,115.095 103.815,115.124 102.875 C 115.154 101.935,115.154 100.398,115.124 99.458 C 115.095 98.519,115.070 99.287,115.070 101.167 M112.697 105.958 C 115.142 105.984,119.192 105.984,121.697 105.958 C 124.201 105.932,122.200 105.911,117.250 105.911 C 112.300 105.911,110.251 105.932,112.697 105.958 M131.613 105.958 C 133.830 105.984,137.505 105.984,139.780 105.958 C 142.055 105.932,140.242 105.911,135.750 105.911 C 131.258 105.910,129.397 105.932,131.613 105.958 M126.237 109.667 C 126.237 111.638,126.262 112.444,126.291 111.458 C 126.321 110.473,126.321 108.860,126.291 107.875 C 126.262 106.890,126.237 107.696,126.237 109.667 M103.053 114.792 C 105.053 114.818,108.278 114.818,110.220 114.791 C 112.161 114.765,110.525 114.743,106.583 114.743 C 102.642 114.743,101.053 114.765,103.053 114.792 M115.075 114.879 C 115.030 114.996,115.015 116.702,115.042 118.671 L 115.090 122.250 115.128 118.543 L 115.167 114.835 127.542 114.792 L 139.917 114.748 127.536 114.707 C 117.628 114.675,115.140 114.709,115.075 114.879 M141.792 114.789 C 142.181 114.824,142.819 114.824,143.208 114.789 C 143.598 114.754,143.279 114.725,142.500 114.725 C 141.721 114.725,141.402 114.754,141.792 114.789 M126.205 124.333 C 126.205 124.654,126.240 124.785,126.282 124.625 C 126.323 124.465,126.323 124.202,126.282 124.042 C 126.240 123.881,126.205 124.013,126.205 124.333 " stroke="none" fill="#9598a1" fill-rule="evenodd"></path><path id="path17" d="" stroke="none" fill="#ff5555" fill-rule="evenodd"></path><path id="path18" d="M87.544 75.286 C 87.797 75.325,88.172 75.324,88.377 75.284 C 88.582 75.244,88.375 75.213,87.917 75.214 C 87.458 75.216,87.291 75.248,87.544 75.286 M94.039 81.167 C 94.039 81.487,94.073 81.619,94.115 81.458 C 94.157 81.298,94.157 81.035,94.115 80.875 C 94.073 80.715,94.039 80.846,94.039 81.167 M111.872 99.500 C 111.872 99.821,111.906 99.952,111.948 99.792 C 111.990 99.631,111.990 99.369,111.948 99.208 C 111.906 99.048,111.872 99.179,111.872 99.500 " stroke="none" fill="#d88a78" fill-rule="evenodd"></path><path id="path19" d="M76.571 23.333 C 76.571 25.396,76.595 26.240,76.624 25.208 C 76.654 24.177,76.654 22.490,76.624 21.458 C 76.595 20.427,76.571 21.271,76.571 23.333 M88.404 32.250 C 88.404 34.267,88.429 35.069,88.458 34.032 C 88.487 32.996,88.487 31.346,88.458 30.366 C 88.428 29.385,88.404 30.233,88.404 32.250 M76.538 40.956 L 76.500 44.661 71.958 44.708 L 67.417 44.756 71.964 44.794 C 75.523 44.825,76.528 44.787,76.592 44.621 C 76.637 44.504,76.652 42.798,76.625 40.829 L 76.576 37.250 76.538 40.956 M123.148 44.715 C 123.221 44.788,123.949 44.825,124.765 44.797 L 126.250 44.748 124.633 44.665 C 123.743 44.620,123.075 44.643,123.148 44.715 M82.970 44.792 C 85.750 44.817,90.250 44.817,92.970 44.792 C 95.691 44.766,93.417 44.745,87.917 44.745 C 82.417 44.745,80.191 44.766,82.970 44.792 M113.199 44.791 C 114.179 44.820,115.829 44.820,116.866 44.791 C 117.902 44.762,117.100 44.738,115.083 44.738 C 113.067 44.738,112.219 44.762,113.199 44.791 M131.613 44.791 C 133.830 44.818,137.505 44.818,139.780 44.792 C 142.055 44.765,140.242 44.744,135.750 44.744 C 131.258 44.744,129.397 44.765,131.613 44.791 M88.404 49.417 C 88.404 51.342,88.428 52.106,88.458 51.116 C 88.487 50.126,88.487 48.551,88.458 47.616 C 88.428 46.681,88.404 47.492,88.404 49.417 M76.571 57.917 C 76.572 60.025,76.595 60.865,76.625 59.782 C 76.654 58.700,76.654 56.975,76.624 55.949 C 76.595 54.923,76.571 55.808,76.571 57.917 M103.573 56.875 L 103.083 57.417 103.625 56.927 C 103.923 56.658,104.167 56.414,104.167 56.385 C 104.167 56.257,104.029 56.370,103.573 56.875 M101.906 58.542 L 101.417 59.083 101.958 58.594 C 102.256 58.325,102.500 58.081,102.500 58.052 C 102.500 57.923,102.362 58.037,101.906 58.542 M99.491 60.958 L 98.917 61.583 99.542 61.009 C 100.123 60.474,100.243 60.333,100.116 60.333 C 100.088 60.333,99.807 60.615,99.491 60.958 M96.824 63.625 L 96.250 64.250 96.875 63.676 C 97.457 63.141,97.577 63.000,97.449 63.000 C 97.422 63.000,97.140 63.281,96.824 63.625 M75.240 67.542 L 74.750 68.083 75.292 67.594 C 75.590 67.325,75.833 67.081,75.833 67.052 C 75.833 66.923,75.696 67.037,75.240 67.542 M73.328 69.458 L 72.417 70.417 73.375 69.506 C 74.265 68.659,74.410 68.500,74.286 68.500 C 74.260 68.500,73.829 68.931,73.328 69.458 M69.157 71.791 L 70.898 71.846 69.241 73.548 L 67.583 75.250 69.292 73.586 C 71.379 71.554,71.384 71.659,69.208 71.702 L 67.417 71.737 69.157 71.791 M91.698 71.791 C 93.227 71.819,95.777 71.819,97.364 71.791 C 98.951 71.764,97.700 71.742,94.583 71.741 C 91.467 71.741,90.168 71.764,91.698 71.791 M107.625 71.792 C 111.040 71.817,116.627 71.817,120.042 71.792 C 123.456 71.766,120.662 71.746,113.833 71.746 C 107.004 71.746,104.210 71.766,107.625 71.792 M131.613 71.791 C 133.830 71.818,137.505 71.818,139.780 71.792 C 142.055 71.765,140.242 71.744,135.750 71.744 C 131.258 71.744,129.397 71.765,131.613 71.791 " stroke="none" fill="#acadb5" fill-rule="evenodd"></path><path id="path20" d="" stroke="none" fill="#6db6ff" fill-rule="evenodd"></path><path id="path21" d="M86.165 75.645 C 85.067 75.997,83.667 76.788,83.667 77.058 C 83.667 77.260,109.999 103.667,110.201 103.667 C 110.434 103.667,111.292 102.228,111.579 101.355 C 113.377 95.890,106.991 91.028,102.289 94.282 C 101.541 94.799,101.360 94.723,101.851 94.099 C 105.920 88.926,98.861 81.588,93.418 85.333 C 92.478 85.979,92.361 85.964,92.893 85.266 C 96.398 80.671,91.655 73.888,86.165 75.645 " stroke="none" fill="#fb9d85" fill-rule="evenodd"></path><path id="path22" d="M69.708 54.125 C 70.969 54.153,73.031 54.153,74.292 54.125 C 75.552 54.096,74.521 54.073,72.000 54.073 C 69.479 54.073,68.448 54.096,69.708 54.125 M83.162 54.125 L 88.574 54.171 86.412 56.377 L 84.250 58.583 86.458 56.419 C 87.673 55.229,88.667 54.197,88.667 54.127 C 88.667 54.057,86.210 54.018,83.208 54.039 L 77.750 54.079 83.162 54.125 M108.792 54.125 C 110.098 54.153,112.235 54.153,113.542 54.125 C 114.848 54.096,113.779 54.073,111.167 54.073 C 108.554 54.073,107.485 54.096,108.792 54.125 M122.375 54.124 C 123.085 54.155,124.248 54.155,124.958 54.124 C 125.669 54.093,125.087 54.067,123.667 54.067 C 122.246 54.067,121.665 54.093,122.375 54.124 M131.613 54.125 C 133.830 54.151,137.505 54.151,139.780 54.125 C 142.055 54.099,140.242 54.077,135.750 54.077 C 131.258 54.077,129.397 54.099,131.613 54.125 M83.240 59.542 L 82.750 60.083 83.292 59.594 C 83.797 59.138,83.910 59.000,83.781 59.000 C 83.752 59.000,83.509 59.244,83.240 59.542 M70.542 62.958 C 72.260 62.985,75.073 62.985,76.792 62.958 C 78.510 62.931,77.104 62.909,73.667 62.909 C 70.229 62.909,68.823 62.931,70.542 62.958 M101.625 62.958 C 103.848 62.984,107.485 62.984,109.708 62.958 C 111.931 62.932,110.112 62.910,105.667 62.910 C 101.221 62.910,99.402 62.932,101.625 62.958 M121.292 62.958 C 124.706 62.983,130.294 62.983,133.708 62.958 C 137.123 62.933,134.329 62.912,127.500 62.912 C 120.671 62.912,117.877 62.933,121.292 62.958 M141.792 62.955 C 142.181 62.990,142.819 62.990,143.208 62.955 C 143.598 62.920,143.279 62.892,142.500 62.892 C 141.721 62.892,141.402 62.920,141.792 62.955 M87.079 73.375 L 85.917 74.583 87.125 73.421 C 87.790 72.782,88.333 72.238,88.333 72.213 C 88.333 72.091,88.158 72.253,87.079 73.375 M84.828 75.625 L 83.917 76.583 84.875 75.672 C 85.402 75.171,85.833 74.740,85.833 74.714 C 85.833 74.590,85.674 74.735,84.828 75.625 M105.198 87.791 C 106.727 87.819,109.277 87.819,110.864 87.791 C 112.451 87.764,111.200 87.742,108.083 87.741 C 104.967 87.741,103.668 87.764,105.198 87.791 M121.292 87.792 C 124.706 87.817,130.294 87.817,133.708 87.792 C 137.123 87.766,134.329 87.746,127.500 87.746 C 120.671 87.746,117.877 87.766,121.292 87.792 M141.792 87.789 C 142.181 87.824,142.819 87.824,143.208 87.789 C 143.598 87.754,143.279 87.725,142.500 87.725 C 141.721 87.725,141.402 87.754,141.792 87.789 M107.167 106.750 C 106.762 107.162,106.468 107.500,106.514 107.500 C 106.560 107.500,106.928 107.162,107.333 106.750 C 107.738 106.337,108.032 106.000,107.986 106.000 C 107.940 106.000,107.572 106.337,107.167 106.750 M105.410 108.542 L 104.583 109.417 105.458 108.590 C 106.271 107.821,106.410 107.667,106.285 107.667 C 106.259 107.667,105.865 108.060,105.410 108.542 " stroke="none" fill="#c2c4c9" fill-rule="evenodd"></path><path id="path23" d="M105.042 39.948 C 105.202 39.990,105.465 39.990,105.625 39.948 C 105.785 39.906,105.654 39.872,105.333 39.872 C 105.013 39.872,104.881 39.906,105.042 39.948 M82.158 60.625 L 81.583 61.250 82.208 60.676 C 82.552 60.360,82.833 60.078,82.833 60.051 C 82.833 59.923,82.692 60.043,82.158 60.625 M92.498 67.958 L 90.083 70.417 92.542 68.002 C 94.825 65.759,95.075 65.500,94.956 65.500 C 94.932 65.500,93.826 66.606,92.498 67.958 M76.324 66.458 L 75.750 67.083 76.375 66.509 C 76.719 66.193,77.000 65.912,77.000 65.884 C 77.000 65.757,76.859 65.877,76.324 66.458 M97.250 91.000 C 104.308 98.058,110.120 103.833,110.166 103.833 C 110.212 103.833,104.475 98.058,97.417 91.000 C 90.359 83.942,84.547 78.167,84.501 78.167 C 84.455 78.167,90.192 83.942,97.250 91.000 " stroke="none" fill="#fbb4a0" fill-rule="evenodd"></path><path id="path24" d="M76.500 7.989 C 71.388 9.429,67.503 14.128,67.500 18.875 L 67.500 19.667 105.667 19.667 L 143.833 19.667 143.833 18.835 C 143.833 14.526,140.377 9.998,135.757 8.255 L 134.417 7.750 106.000 7.717 C 78.911 7.686,77.533 7.699,76.500 7.989 M246.455 90.631 C 246.018 91.338,245.061 92.879,244.328 94.054 C 242.745 96.594,242.720 96.500,244.989 96.500 L 246.792 96.500 248.937 94.180 C 252.315 90.529,253.163 89.551,253.050 89.438 C 252.992 89.381,251.663 89.336,250.097 89.339 L 247.250 89.345 246.455 90.631 M306.500 97.441 C 299.065 98.558,294.424 103.772,294.432 111.000 C 294.443 120.899,304.339 127.508,313.269 123.580 L 314.122 123.205 315.186 124.597 L 316.250 125.989 319.292 125.995 C 322.193 126.000,322.333 125.985,322.333 125.677 C 322.333 125.499,322.258 125.306,322.165 125.249 C 322.073 125.192,321.592 124.606,321.096 123.948 C 320.600 123.289,319.738 122.167,319.181 121.455 C 317.994 119.939,318.040 120.124,318.658 119.344 C 325.823 110.298,317.748 95.752,306.500 97.441 M151.243 98.208 C 151.200 98.323,151.183 104.154,151.207 111.167 L 151.250 123.917 153.833 123.917 L 156.417 123.917 156.500 115.917 C 156.569 109.276,156.620 107.981,156.798 108.293 C 156.916 108.499,158.266 110.578,159.798 112.912 C 161.330 115.246,163.591 118.697,164.823 120.582 L 167.062 124.008 169.573 123.963 L 172.083 123.917 172.083 111.000 L 172.083 98.083 169.458 98.037 L 166.833 97.992 166.832 106.121 L 166.831 114.250 165.183 111.750 C 162.720 108.014,159.255 102.700,157.662 100.215 L 156.250 98.013 153.786 98.007 C 151.964 98.002,151.302 98.054,151.243 98.208 M179.782 98.107 C 179.719 98.170,179.667 102.250,179.667 107.173 C 179.667 118.884,179.817 119.845,181.986 122.018 C 185.496 125.535,191.644 125.573,194.969 122.100 C 197.366 119.595,197.379 119.519,197.400 107.583 L 197.417 98.083 194.808 98.038 L 192.199 97.992 192.123 107.288 C 192.071 113.664,191.987 116.774,191.854 117.189 C 190.958 120.005,186.477 120.275,185.303 117.583 C 185.135 117.199,185.066 114.891,185.001 107.583 L 184.917 98.083 182.407 98.037 C 181.027 98.012,179.845 98.044,179.782 98.107 M207.424 98.208 C 207.388 98.323,207.009 100.479,206.583 103.000 C 205.906 107.001,204.778 113.550,203.413 121.412 C 203.190 122.693,203.068 123.802,203.142 123.875 C 203.216 123.949,204.394 123.988,205.761 123.963 L 208.246 123.917 208.864 120.250 C 209.633 115.692,210.836 108.942,210.890 108.888 C 210.912 108.866,211.932 111.863,213.156 115.549 C 214.380 119.235,215.527 122.644,215.703 123.125 L 216.024 124.000 218.323 124.000 L 220.621 124.000 221.885 120.292 C 222.579 118.252,223.733 114.841,224.449 112.712 C 225.308 110.157,225.790 108.939,225.866 109.129 C 225.931 109.287,226.363 111.704,226.827 114.500 C 227.291 117.296,227.843 120.558,228.053 121.750 L 228.435 123.917 230.968 123.963 L 233.500 124.009 233.491 123.546 C 233.487 123.292,232.527 117.458,231.359 110.583 L 229.235 98.083 226.679 98.083 L 224.122 98.083 221.274 106.542 C 219.707 111.194,218.384 115.000,218.334 115.000 C 218.284 115.000,216.977 111.175,215.428 106.500 L 212.613 98.000 210.051 98.000 C 208.148 98.000,207.473 98.054,207.424 98.208 M239.411 98.207 C 239.367 98.322,239.350 104.154,239.374 111.167 L 239.417 123.917 246.583 123.917 L 253.750 123.917 253.796 121.375 L 253.842 118.833 249.254 118.833 L 244.667 118.833 244.667 115.669 L 244.667 112.505 249.208 112.461 L 253.750 112.417 253.750 109.917 L 253.750 107.417 249.208 107.372 L 244.667 107.328 244.667 105.250 L 244.667 103.172 249.208 103.128 L 253.750 103.083 253.750 100.583 L 253.750 98.083 246.620 98.040 C 241.006 98.006,239.474 98.041,239.411 98.207 M260.667 110.984 L 260.667 124.008 263.292 123.963 L 265.917 123.917 265.961 118.587 L 266.005 113.257 267.052 115.170 C 267.628 116.222,268.918 118.640,269.917 120.542 L 271.735 124.000 274.524 124.000 C 276.058 124.000,277.351 123.940,277.396 123.867 C 277.470 123.747,275.971 120.832,272.709 114.750 L 271.546 112.583 272.315 112.194 C 278.295 109.161,277.402 100.030,270.967 98.401 C 270.185 98.203,268.735 98.113,265.292 98.047 L 260.667 97.959 260.667 110.984 M282.912 98.204 C 282.867 98.321,282.850 104.154,282.874 111.167 L 282.917 123.917 285.543 123.963 L 288.169 124.008 288.126 111.046 L 288.083 98.083 285.538 98.037 C 283.594 98.002,282.974 98.041,282.912 98.204 M327.733 98.233 C 327.496 98.853,327.786 116.924,328.053 118.140 C 329.761 125.905,341.066 127.135,344.582 119.939 C 345.420 118.225,345.525 116.627,345.466 106.500 L 345.417 98.083 342.792 98.037 L 340.167 97.992 340.166 106.787 C 340.165 116.329,340.101 117.236,339.368 118.157 C 337.983 119.895,334.667 119.842,333.632 118.065 C 333.111 117.170,333.010 115.327,333.005 106.542 L 333.000 98.000 330.411 98.000 C 328.347 98.000,327.805 98.047,327.733 98.233 M353.077 98.207 C 353.033 98.322,353.017 104.154,353.040 111.167 L 353.083 123.917 360.250 123.917 L 367.417 123.917 367.463 121.375 L 367.509 118.833 362.921 118.833 L 358.333 118.833 358.333 115.669 L 358.333 112.505 362.875 112.461 L 367.417 112.417 367.417 109.917 L 367.417 107.417 362.875 107.372 L 358.333 107.328 358.333 105.250 L 358.333 103.172 362.875 103.128 L 367.417 103.083 367.417 100.583 L 367.417 98.083 360.287 98.040 C 354.673 98.006,353.141 98.041,353.077 98.207 M310.383 103.002 C 314.581 104.298,316.996 109.231,315.580 113.616 C 314.853 115.870,314.846 115.875,313.984 114.749 C 313.580 114.223,313.075 113.577,312.860 113.313 L 312.470 112.833 309.485 112.833 C 305.798 112.833,305.858 112.592,308.649 116.167 L 310.796 118.917 310.106 119.145 C 306.913 120.205,302.549 118.453,300.850 115.431 C 297.040 108.653,303.100 100.752,310.383 103.002 M269.830 103.582 C 270.679 104.021,271.000 104.602,271.000 105.702 C 271.000 107.375,269.956 108.000,267.158 108.000 L 266.000 108.000 266.000 105.558 L 266.000 103.117 267.678 103.227 C 268.614 103.288,269.566 103.445,269.830 103.582 M86.617 125.432 C 83.366 127.124,77.357 128.159,73.500 127.691 L 72.083 127.519 70.503 129.091 L 68.922 130.663 69.253 131.288 C 70.480 133.610,73.940 136.091,76.750 136.664 C 77.300 136.776,77.900 136.936,78.083 137.020 C 78.775 137.337,132.922 137.117,134.250 136.792 C 139.597 135.484,143.403 131.192,143.785 126.042 L 143.862 125.000 128.101 125.000 L 112.340 125.000 112.241 125.458 C 110.654 132.855,100.338 133.063,99.237 125.720 L 99.129 125.000 93.273 125.008 L 87.417 125.016 86.617 125.432 " stroke="none" fill="#93e0ff" fill-rule="evenodd"></path><path id="path25" d="" stroke="none" fill="#00ffff" fill-rule="evenodd"></path><path id="path26" d="M100.238 23.333 C 100.238 25.396,100.262 26.240,100.291 25.208 C 100.320 24.177,100.320 22.490,100.291 21.458 C 100.262 20.427,100.238 21.271,100.238 23.333 M101.405 23.333 C 101.405 25.396,101.429 26.240,101.458 25.208 C 101.487 24.177,101.487 22.490,101.458 21.458 C 101.429 20.427,101.405 21.271,101.405 23.333 M139.905 32.167 C 139.905 34.229,139.929 35.073,139.958 34.042 C 139.987 33.010,139.987 31.323,139.958 30.292 C 139.929 29.260,139.905 30.104,139.905 32.167 M141.071 32.167 C 141.071 34.229,141.095 35.073,141.124 34.042 C 141.154 33.010,141.154 31.323,141.124 30.292 C 141.095 29.260,141.071 30.104,141.071 32.167 M105.211 32.620 C 105.464 32.658,105.839 32.657,106.044 32.617 C 106.249 32.578,106.042 32.546,105.583 32.548 C 105.125 32.549,104.957 32.581,105.211 32.620 M100.234 39.750 C 100.234 41.217,100.260 41.794,100.291 41.034 C 100.322 40.273,100.322 39.073,100.290 38.367 C 100.259 37.661,100.234 38.283,100.234 39.750 M101.398 39.333 C 101.398 40.479,101.424 40.948,101.457 40.375 C 101.489 39.802,101.489 38.865,101.457 38.292 C 101.424 37.719,101.398 38.188,101.398 39.333 M139.904 49.417 C 139.904 51.342,139.928 52.106,139.958 51.116 C 139.987 50.126,139.987 48.551,139.958 47.616 C 139.928 46.681,139.904 47.492,139.904 49.417 M141.070 49.417 C 141.070 51.250,141.094 52.023,141.124 51.134 C 141.154 50.245,141.154 48.745,141.124 47.801 C 141.095 46.856,141.070 47.583,141.070 49.417 M117.906 58.208 L 117.417 58.750 117.958 58.260 C 118.256 57.991,118.500 57.748,118.500 57.719 C 118.500 57.590,118.362 57.703,117.906 58.208 M101.390 60.417 C 101.391 61.150,101.420 61.429,101.456 61.037 C 101.491 60.645,101.490 60.045,101.454 59.704 C 101.419 59.363,101.390 59.683,101.390 60.417 M100.212 61.000 C 100.212 61.413,100.245 61.581,100.284 61.375 C 100.324 61.169,100.324 60.831,100.284 60.625 C 100.245 60.419,100.212 60.587,100.212 61.000 M139.905 66.750 C 139.905 68.858,139.929 69.698,139.958 68.616 C 139.987 67.533,139.987 65.808,139.958 64.782 C 139.928 63.756,139.905 64.642,139.905 66.750 M141.071 66.667 C 141.071 68.729,141.095 69.573,141.124 68.542 C 141.154 67.510,141.154 65.823,141.124 64.792 C 141.095 63.760,141.071 64.604,141.071 66.667 M100.238 75.583 C 100.238 77.692,100.262 78.531,100.291 77.449 C 100.320 76.367,100.320 74.642,100.291 73.616 C 100.262 72.590,100.238 73.475,100.238 75.583 M101.405 75.500 C 101.405 77.563,101.429 78.406,101.458 77.375 C 101.487 76.344,101.487 74.656,101.458 73.625 C 101.429 72.594,101.405 73.438,101.405 75.500 M139.904 84.167 C 139.904 86.138,139.928 86.944,139.958 85.958 C 139.987 84.973,139.987 83.360,139.958 82.375 C 139.928 81.390,139.904 82.196,139.904 84.167 M141.071 84.167 C 141.071 86.138,141.095 86.944,141.124 85.958 C 141.154 84.973,141.154 83.360,141.124 82.375 C 141.095 81.390,141.071 82.196,141.071 84.167 M108.804 88.958 C 112.042 88.984,117.292 88.984,120.471 88.958 C 123.649 88.933,121.000 88.912,114.583 88.912 C 108.167 88.912,105.566 88.933,108.804 88.958 M131.613 88.958 C 133.830 88.984,137.505 88.984,139.780 88.958 C 142.055 88.932,140.242 88.911,135.750 88.911 C 131.258 88.910,129.397 88.932,131.613 88.958 M115.053 96.625 C 117.145 96.651,120.520 96.651,122.553 96.625 C 124.586 96.598,122.875 96.577,118.750 96.577 C 114.625 96.577,112.961 96.598,115.053 96.625 M131.613 96.625 C 133.830 96.651,137.505 96.651,139.780 96.625 C 142.055 96.599,140.242 96.577,135.750 96.577 C 131.258 96.577,129.397 96.599,131.613 96.625 M112.295 97.787 C 112.594 97.825,113.044 97.824,113.295 97.786 C 113.545 97.748,113.300 97.717,112.750 97.718 C 112.200 97.719,111.995 97.750,112.295 97.787 M127.497 97.791 L 139.826 97.835 139.877 101.168 L 139.927 104.500 139.922 101.125 L 139.917 97.750 127.542 97.748 L 115.167 97.747 127.497 97.791 M141.074 97.880 C 141.029 97.997,141.015 99.553,141.042 101.338 L 141.091 104.583 141.129 101.215 L 141.167 97.847 142.542 97.791 L 143.917 97.735 142.536 97.701 C 141.543 97.676,141.133 97.726,141.074 97.880 M139.905 118.500 C 139.905 120.563,139.929 121.406,139.958 120.375 C 139.987 119.344,139.987 117.656,139.958 116.625 C 139.929 115.594,139.905 116.438,139.905 118.500 M141.071 118.500 C 141.071 120.563,141.095 121.406,141.124 120.375 C 141.154 119.344,141.154 117.656,141.124 116.625 C 141.095 115.594,141.071 116.438,141.071 118.500 M86.000 125.583 C 85.771 125.714,85.658 125.822,85.750 125.822 C 85.842 125.822,86.104 125.714,86.333 125.583 C 86.563 125.452,86.675 125.345,86.583 125.345 C 86.492 125.345,86.229 125.452,86.000 125.583 M70.497 128.958 L 68.917 130.583 70.578 129.000 C 71.492 128.129,72.273 127.398,72.314 127.375 C 72.355 127.352,72.319 127.333,72.233 127.333 C 72.147 127.333,71.366 128.065,70.497 128.958 M72.794 127.618 C 73.001 127.658,73.301 127.656,73.460 127.615 C 73.620 127.573,73.450 127.540,73.083 127.542 C 72.717 127.544,72.586 127.578,72.794 127.618 M78.460 127.618 C 78.668 127.658,78.968 127.656,79.127 127.615 C 79.286 127.573,79.117 127.540,78.750 127.542 C 78.383 127.544,78.253 127.578,78.460 127.618 M75.048 127.790 C 75.578 127.823,76.403 127.823,76.881 127.789 C 77.359 127.756,76.925 127.729,75.917 127.729 C 74.908 127.729,74.517 127.757,75.048 127.790 " stroke="none" fill="#dadbde" fill-rule="evenodd"></path><path id="path27" d="" stroke="none" fill="#55ffff" fill-rule="evenodd"></path><path id="path28" d="M103.633 40.322 C 101.986 40.848,101.356 41.367,96.901 45.862 C 81.609 61.293,67.724 75.165,67.571 75.166 C 67.282 75.167,57.330 85.289,56.181 86.750 C 52.042 92.013,50.164 98.637,50.833 105.619 L 50.917 106.489 35.875 121.542 C 27.602 129.822,20.833 136.724,20.833 136.881 C 20.833 137.149,22.115 137.167,41.718 137.167 L 62.604 137.167 65.758 133.997 C 67.492 132.253,68.963 130.697,69.025 130.538 C 69.087 130.380,69.800 129.602,70.610 128.809 L 72.083 127.368 73.000 127.505 C 78.001 128.253,84.014 126.942,88.955 124.026 C 91.518 122.512,91.652 122.389,101.595 112.406 L 110.106 103.859 96.804 90.555 C 89.488 83.237,83.502 77.182,83.501 77.099 C 83.501 77.016,89.537 70.913,96.916 63.537 C 111.596 48.864,111.225 49.282,111.450 47.106 C 111.504 46.584,111.605 46.121,111.676 46.078 C 111.807 45.996,111.682 45.533,111.136 44.083 C 109.995 41.057,106.623 39.366,103.633 40.322 " stroke="none" fill="#fbd4c5" fill-rule="evenodd"></path><path id="path29" d="" stroke="none" fill="#99ffff" fill-rule="evenodd"></path><path id="path30" d="M76.960 19.785 C 77.168 19.824,77.468 19.823,77.627 19.781 C 77.786 19.739,77.617 19.707,77.250 19.709 C 76.883 19.711,76.753 19.745,76.960 19.785 M100.542 19.782 C 100.702 19.823,100.965 19.823,101.125 19.782 C 101.285 19.740,101.154 19.705,100.833 19.705 C 100.513 19.705,100.381 19.740,100.542 19.782 M126.627 19.785 C 126.834 19.824,127.134 19.823,127.294 19.781 C 127.453 19.739,127.283 19.707,126.917 19.709 C 126.550 19.711,126.420 19.745,126.627 19.785 M87.238 32.083 C 87.238 34.192,87.262 35.031,87.291 33.949 C 87.320 32.867,87.320 31.142,87.291 30.116 C 87.262 29.090,87.238 29.975,87.238 32.083 M69.708 37.125 C 70.969 37.153,73.031 37.153,74.292 37.125 C 75.552 37.096,74.521 37.073,72.000 37.073 C 69.479 37.073,68.448 37.096,69.708 37.125 M81.136 37.125 C 82.907 37.152,85.757 37.152,87.469 37.125 C 89.182 37.098,87.733 37.076,84.250 37.076 C 80.767 37.076,79.365 37.098,81.136 37.125 M96.875 37.124 C 97.494 37.156,98.506 37.156,99.125 37.124 C 99.744 37.092,99.237 37.065,98.000 37.065 C 96.763 37.065,96.256 37.092,96.875 37.124 M101.442 37.125 C 101.372 37.239,106.537 37.236,112.917 37.120 C 114.292 37.095,112.290 37.057,108.468 37.037 C 104.646 37.017,101.485 37.056,101.442 37.125 M120.775 37.125 C 120.733 37.194,121.534 37.230,122.557 37.206 C 125.928 37.127,126.290 37.063,123.552 37.032 C 122.067 37.014,120.818 37.056,120.775 37.125 M131.613 37.125 C 133.830 37.151,137.505 37.151,139.780 37.125 C 142.055 37.099,140.242 37.077,135.750 37.077 C 131.258 37.077,129.397 37.099,131.613 37.125 M100.740 41.875 L 100.250 42.417 100.792 41.927 C 101.090 41.658,101.333 41.414,101.333 41.385 C 101.333 41.257,101.196 41.370,100.740 41.875 M97.158 45.458 L 96.583 46.083 97.208 45.509 C 97.790 44.974,97.910 44.833,97.783 44.833 C 97.755 44.833,97.474 45.115,97.158 45.458 M111.505 45.167 C 111.505 45.304,111.578 45.529,111.667 45.667 C 111.810 45.889,111.828 45.889,111.828 45.667 C 111.828 45.529,111.756 45.304,111.667 45.167 C 111.523 44.944,111.505 44.944,111.505 45.167 M87.205 49.374 L 87.167 52.831 77.292 52.875 L 67.417 52.919 77.297 52.960 C 85.193 52.992,87.194 52.957,87.259 52.787 C 87.304 52.670,87.319 51.076,87.292 49.245 L 87.243 45.917 87.205 49.374 M141.148 52.882 C 141.222 52.955,141.875 52.992,142.599 52.964 L 143.917 52.914 142.466 52.832 C 141.668 52.787,141.075 52.810,141.148 52.882 M88.978 52.955 L 89.539 53.024 89.062 53.554 C 88.605 54.060,88.611 54.058,89.209 53.509 C 89.979 52.801,89.982 52.828,89.125 52.860 C 88.480 52.884,88.467 52.893,88.978 52.955 M109.217 52.958 C 110.116 52.988,111.541 52.988,112.384 52.957 C 113.227 52.927,112.492 52.903,110.750 52.903 C 109.008 52.903,108.318 52.928,109.217 52.958 M115.542 52.953 C 115.794 52.991,116.206 52.991,116.458 52.953 C 116.710 52.915,116.504 52.883,116.000 52.883 C 115.496 52.883,115.290 52.915,115.542 52.953 M126.220 52.958 C 128.770 52.984,132.895 52.984,135.387 52.958 C 137.878 52.932,135.792 52.911,130.750 52.911 C 125.708 52.911,123.670 52.932,126.220 52.958 M69.708 61.791 C 70.969 61.820,73.031 61.820,74.292 61.791 C 75.552 61.763,74.521 61.740,72.000 61.740 C 69.479 61.740,68.448 61.763,69.708 61.791 M79.306 61.791 C 80.587 61.843,80.679 61.870,80.476 62.132 C 80.308 62.349,80.344 62.342,80.628 62.099 C 81.148 61.655,81.170 61.663,79.458 61.701 L 77.917 61.735 79.306 61.791 M99.127 61.785 C 99.334 61.824,99.634 61.823,99.794 61.781 C 99.953 61.739,99.783 61.707,99.417 61.709 C 99.050 61.711,98.920 61.745,99.127 61.785 M107.625 61.792 C 111.040 61.817,116.627 61.817,120.042 61.792 C 123.456 61.766,120.662 61.746,113.833 61.746 C 107.004 61.746,104.210 61.766,107.625 61.792 M131.625 61.792 C 133.848 61.818,137.485 61.818,139.708 61.792 C 141.931 61.765,140.112 61.744,135.667 61.744 C 131.221 61.744,129.402 61.765,131.625 61.792 M141.148 70.549 C 141.222 70.622,141.875 70.659,142.599 70.631 L 143.917 70.581 142.466 70.499 C 141.668 70.454,141.075 70.476,141.148 70.549 M68.625 70.624 C 69.290 70.655,70.377 70.655,71.042 70.624 C 71.706 70.592,71.162 70.566,69.833 70.566 C 68.504 70.566,67.960 70.592,68.625 70.624 M89.491 71.125 L 88.917 71.750 89.507 71.209 L 90.097 70.669 102.007 70.625 L 113.917 70.581 101.991 70.541 L 90.065 70.500 89.491 71.125 M121.292 70.625 C 124.706 70.650,130.294 70.650,133.708 70.625 C 137.123 70.600,134.329 70.579,127.500 70.579 C 120.671 70.579,117.877 70.600,121.292 70.625 M101.476 79.376 C 101.545 79.445,107.148 79.483,113.926 79.459 L 126.250 79.417 113.800 79.333 C 106.952 79.287,101.407 79.307,101.476 79.376 M95.375 79.458 C 96.269 79.488,97.731 79.488,98.625 79.458 C 99.519 79.428,98.787 79.403,97.000 79.403 C 95.212 79.403,94.481 79.428,95.375 79.458 M131.613 79.458 C 133.830 79.484,137.505 79.484,139.780 79.458 C 142.055 79.432,140.242 79.411,135.750 79.411 C 131.258 79.410,129.397 79.432,131.613 79.458 M108.824 105.292 L 108.250 105.917 108.875 105.342 C 109.457 104.808,109.577 104.667,109.449 104.667 C 109.422 104.667,109.140 104.948,108.824 105.292 M100.328 113.792 L 99.417 114.750 100.375 113.839 C 101.265 112.993,101.410 112.833,101.286 112.833 C 101.260 112.833,100.829 113.265,100.328 113.792 M126.627 124.951 C 126.834 124.991,127.134 124.990,127.294 124.948 C 127.453 124.906,127.283 124.874,126.917 124.875 C 126.550 124.877,126.420 124.911,126.627 124.951 " stroke="none" fill="#ededef" fill-rule="evenodd"></path><path id="path31" d="" stroke="none" fill="#ffff00" fill-rule="evenodd"></path></g></svg>