<svg id="svg" version="1.1" width="400" height="400" viewBox="0 0 400 400" xmlns="http://www.w3.org/2000/svg" xmlns:xlink="http://www.w3.org/1999/xlink" ><g id="svgg"><path id="path0" d="" stroke="none" fill="#242424" fill-rule="evenodd"></path><path id="path1" d="M123.125 63.704 C 123.125 69.306,123.177 71.597,123.240 68.796 C 123.303 65.995,123.303 61.412,123.240 58.611 C 123.177 55.810,123.125 58.102,123.125 63.704 M123.126 113.148 C 123.126 118.852,123.177 121.133,123.240 118.218 C 123.303 115.303,123.303 110.637,123.240 107.848 C 123.177 105.059,123.126 107.444,123.126 113.148 M123.125 160.000 C 123.125 165.602,123.177 167.894,123.240 165.093 C 123.303 162.292,123.303 157.708,123.240 154.907 C 123.177 152.106,123.125 154.398,123.125 160.000 M193.419 250.741 C 193.419 251.454,193.495 251.745,193.589 251.389 C 193.682 251.032,193.682 250.449,193.589 250.093 C 193.495 249.736,193.419 250.028,193.419 250.741 M162.870 342.870 C 166.384 342.931,172.134 342.931,175.648 342.870 C 179.162 342.809,176.287 342.759,169.259 342.759 C 162.231 342.759,159.356 342.809,162.870 342.870 M228.056 342.870 C 233.403 342.928,242.153 342.928,247.500 342.870 C 252.847 342.812,248.472 342.765,237.778 342.765 C 227.083 342.765,222.708 342.812,228.056 342.870 M272.341 342.870 C 278.620 342.927,288.787 342.927,294.934 342.870 C 301.081 342.813,295.944 342.767,283.519 342.767 C 271.093 342.767,266.063 342.813,272.341 342.870 " stroke="none" fill="#f7f7f7" fill-rule="evenodd"></path><path id="path2" d="M119.044 21.299 C 115.166 22.290,111.388 23.913,109.368 25.457 C 108.595 26.048,107.130 27.152,106.111 27.910 C 104.083 29.420,100.498 33.402,99.977 34.722 C 99.796 35.181,99.495 35.556,99.309 35.556 C 98.856 35.556,96.090 41.925,95.529 44.259 C 95.285 45.278,94.940 46.269,94.764 46.463 C 94.588 46.656,94.444 47.365,94.444 48.037 L 94.444 49.259 200.185 49.259 C 292.336 49.259,305.926 49.190,305.926 48.722 C 305.926 47.847,305.121 44.290,304.832 43.889 C 304.685 43.685,304.178 42.435,303.704 41.111 C 300.298 31.586,291.587 23.952,281.090 21.291 L 277.458 20.370 199.933 20.405 L 122.407 20.439 119.044 21.299 M94.444 63.704 L 94.444 74.074 106.852 74.074 L 119.259 74.074 119.259 63.704 L 119.259 53.333 106.852 53.333 L 94.444 53.333 94.444 63.704 M123.148 63.704 L 123.148 74.074 153.981 74.074 L 184.815 74.074 184.815 63.704 L 184.815 53.333 153.981 53.333 L 123.148 53.333 123.148 63.704 M188.704 63.704 L 188.704 74.074 222.870 74.074 L 257.037 74.074 257.037 63.704 L 257.037 53.333 222.870 53.333 L 188.704 53.333 188.704 63.704 M261.111 63.704 L 261.111 74.074 283.519 74.074 L 305.926 74.074 305.926 63.704 L 305.926 53.333 283.519 53.333 L 261.111 53.333 261.111 63.704 M94.444 88.333 L 94.444 98.519 121.481 98.519 L 148.519 98.519 148.519 88.333 L 148.519 78.148 121.481 78.148 L 94.444 78.148 94.444 88.333 M152.593 88.333 L 152.593 98.519 156.275 98.519 L 159.957 98.519 161.605 96.389 C 167.702 88.511,178.238 81.463,187.491 79.072 L 190.926 78.185 171.759 78.166 L 152.593 78.148 152.593 88.333 M212.959 79.120 C 214.893 79.623,216.976 80.291,217.589 80.605 C 218.202 80.919,219.579 81.568,220.648 82.049 L 222.593 82.922 222.593 80.535 L 222.593 78.148 216.019 78.177 L 209.444 78.205 212.959 79.120 M226.675 81.759 L 226.683 85.370 228.786 86.852 C 231.802 88.975,236.332 93.366,238.366 96.137 L 240.115 98.519 267.453 98.519 L 294.792 98.519 294.896 88.333 L 295.000 78.148 260.833 78.148 L 226.667 78.148 226.675 81.759 M298.889 88.333 L 298.889 98.519 302.407 98.519 L 305.926 98.519 305.926 88.333 L 305.926 78.148 302.407 78.148 L 298.889 78.148 298.889 88.333 M195.556 90.382 C 189.804 91.357,184.490 93.334,180.493 95.986 C 176.262 98.794,174.164 98.519,199.765 98.519 C 212.541 98.519,222.593 98.376,222.593 98.195 C 222.593 96.913,214.263 92.725,209.151 91.438 C 203.352 89.977,199.641 89.689,195.556 90.382 M94.444 112.963 L 94.444 123.333 106.852 123.333 L 119.259 123.333 119.259 112.963 L 119.259 102.593 106.852 102.593 L 94.444 102.593 94.444 112.963 M123.252 112.963 L 123.356 123.333 150.837 123.333 L 178.319 123.333 181.567 120.100 L 184.815 116.867 184.815 109.730 L 184.815 102.593 178.740 102.593 L 172.665 102.593 170.684 105.395 C 167.531 109.856,167.348 110.063,166.061 110.600 C 161.779 112.390,157.407 109.518,157.407 104.916 L 157.407 102.593 140.278 102.592 L 123.148 102.592 123.252 112.963 M188.815 107.737 L 188.927 112.889 190.482 112.033 C 191.337 111.561,192.787 110.967,193.704 110.711 C 194.620 110.455,195.529 110.107,195.722 109.938 C 195.916 109.768,197.396 109.630,199.011 109.630 C 206.115 109.630,212.710 113.956,215.525 120.463 L 216.767 123.333 226.539 123.333 L 236.310 123.333 236.137 122.500 C 236.042 122.042,235.777 120.500,235.548 119.074 C 235.319 117.648,234.906 115.981,234.630 115.370 C 234.354 114.759,233.529 112.837,232.796 111.099 C 232.062 109.361,230.591 106.777,229.526 105.358 L 227.590 102.778 208.147 102.681 L 188.704 102.585 188.815 107.737 M242.963 102.787 C 242.963 102.894,243.527 104.102,244.215 105.472 C 246.208 109.434,248.287 116.688,248.778 121.389 L 248.981 123.333 253.009 123.333 L 257.037 123.333 257.037 112.963 L 257.037 102.593 250.000 102.593 C 246.130 102.593,242.963 102.680,242.963 102.787 M261.111 112.963 L 261.111 123.333 283.519 123.333 L 305.926 123.333 305.926 112.963 L 305.926 102.593 283.519 102.593 L 261.111 102.593 261.111 112.963 M94.444 136.296 L 94.444 145.556 121.481 145.556 L 148.519 145.556 148.519 136.296 L 148.519 127.037 121.481 127.037 L 94.444 127.037 94.444 136.296 M152.593 136.296 L 152.593 145.556 154.316 145.556 C 156.326 145.556,155.668 146.120,167.210 134.489 L 174.605 127.037 163.599 127.037 L 152.593 127.037 152.593 136.296 M216.942 129.722 C 216.644 133.900,214.727 137.372,210.197 141.944 L 206.620 145.556 214.606 145.556 L 222.593 145.556 222.593 136.296 L 222.593 127.037 219.864 127.037 L 217.134 127.037 216.942 129.722 M226.667 136.296 L 226.667 145.556 228.884 145.556 L 231.100 145.556 232.169 143.426 C 232.756 142.255,233.362 140.880,233.514 140.370 C 233.667 139.861,234.102 138.753,234.481 137.907 C 235.182 136.343,236.292 130.428,236.295 128.241 L 236.296 127.037 231.481 127.037 L 226.667 127.037 226.667 136.296 M248.782 130.278 C 248.587 133.799,247.186 140.511,246.000 143.611 L 245.256 145.556 270.023 145.556 L 294.790 145.556 294.895 136.296 L 295.000 127.036 271.981 127.037 L 248.963 127.037 248.782 130.278 M298.889 136.296 L 298.889 145.556 302.407 145.556 L 305.926 145.556 305.926 136.296 L 305.926 127.037 302.407 127.037 L 298.889 127.037 298.889 136.296 M94.444 160.000 L 94.444 170.370 106.852 170.370 L 119.259 170.370 119.259 160.000 L 119.259 149.630 106.852 149.630 L 94.444 149.630 94.444 160.000 M123.148 160.000 L 123.148 170.370 127.325 170.370 L 131.501 170.370 141.273 160.541 C 146.647 155.135,151.247 150.468,151.494 150.171 C 151.886 149.698,150.127 149.630,137.545 149.630 L 123.148 149.630 123.148 160.000 M195.648 156.510 L 188.889 163.361 188.889 166.866 L 188.889 170.370 222.963 170.370 L 257.037 170.370 257.037 160.000 L 257.037 149.630 250.045 149.630 L 243.053 149.630 242.584 150.761 C 239.866 157.324,226.887 169.270,222.493 169.253 C 215.941 169.228,214.026 160.983,219.698 157.222 C 221.947 155.731,226.097 152.061,227.054 150.716 L 227.828 149.630 215.118 149.644 L 202.407 149.659 195.648 156.510 M261.111 160.000 L 261.111 170.370 283.519 170.370 L 305.926 170.370 305.926 160.000 L 305.926 149.630 283.519 149.630 L 261.111 149.630 261.111 160.000 M183.217 168.817 C 181.922 170.169,181.961 170.370,183.519 170.370 C 184.753 170.370,184.815 170.309,184.815 169.074 C 184.815 167.506,184.519 167.458,183.217 168.817 M94.444 184.444 L 94.444 194.815 100.836 194.815 L 107.227 194.815 117.593 184.444 L 127.958 174.074 111.201 174.074 L 94.444 174.074 94.444 184.444 M173.570 178.649 C 171.154 181.123,166.581 185.773,163.409 188.981 L 157.642 194.815 190.117 194.815 L 222.593 194.815 222.593 184.444 L 222.593 174.074 200.278 174.112 L 177.963 174.149 173.570 178.649 M226.667 184.444 L 226.667 194.815 260.833 194.815 L 295.000 194.815 294.896 184.445 L 294.792 174.074 260.729 174.074 L 226.667 174.074 226.667 184.444 M298.889 184.444 L 298.889 194.815 302.407 194.815 L 305.926 194.815 305.926 184.444 L 305.926 174.074 302.407 174.074 L 298.889 174.074 298.889 184.444 M94.444 203.235 L 94.444 207.581 98.704 203.333 C 101.046 200.997,102.963 199.042,102.963 198.988 C 102.963 198.933,101.046 198.889,98.704 198.889 L 94.444 198.889 94.444 203.235 M147.985 204.422 L 142.461 209.956 144.951 209.052 C 152.945 206.150,162.645 209.936,166.673 217.528 L 167.591 219.259 176.203 219.259 L 184.815 219.259 184.815 209.074 L 184.815 198.889 169.162 198.889 L 153.509 198.889 147.985 204.422 M188.808 209.074 L 188.704 219.260 222.870 219.259 L 257.037 219.259 257.037 209.074 L 257.037 198.889 222.974 198.889 L 188.912 198.889 188.808 209.074 M261.111 209.074 L 261.111 219.259 283.519 219.259 L 305.926 219.259 305.926 209.074 L 305.926 198.889 283.519 198.889 L 261.111 198.889 261.111 209.074 M168.432 226.759 C 168.239 230.540,167.466 233.213,165.993 235.185 L 165.025 236.481 166.446 235.410 C 173.035 230.442,185.024 233.038,190.200 240.553 L 191.605 242.593 207.099 242.593 L 222.593 242.593 222.593 232.963 L 222.593 223.333 195.600 223.333 L 168.607 223.333 168.432 226.759 M226.667 232.963 L 226.667 242.593 260.833 242.593 L 295.000 242.593 295.000 232.963 L 295.000 223.333 260.833 223.333 L 226.667 223.333 226.667 232.963 M298.889 232.963 L 298.889 242.593 302.407 242.593 L 305.926 242.593 305.926 232.963 L 305.926 223.333 302.407 223.333 L 298.889 223.333 298.889 232.963 M193.389 248.611 C 193.863 251.530,192.334 258.266,190.770 260.150 C 190.570 260.391,191.524 260.037,192.889 259.365 C 200.553 255.588,209.911 258.212,215.007 265.566 L 216.027 267.037 236.532 267.037 L 257.037 267.037 257.037 256.852 L 257.037 246.667 225.055 246.667 L 193.074 246.667 193.389 248.611 M261.111 256.852 L 261.111 267.037 283.519 267.037 L 305.926 267.037 305.926 256.852 L 305.926 246.667 283.519 246.667 L 261.111 246.667 261.111 256.852 M217.776 275.278 C 217.773 281.152,216.020 285.553,212.471 288.601 L 211.296 289.610 216.944 289.620 L 222.593 289.630 222.593 280.370 L 222.593 271.111 220.185 271.111 L 217.778 271.111 217.776 275.278 M226.667 280.370 L 226.667 289.630 260.833 289.630 L 295.000 289.630 295.000 280.370 L 295.000 271.111 260.833 271.111 L 226.667 271.111 226.667 280.370 M298.889 280.370 L 298.889 289.630 302.407 289.630 L 305.926 289.630 305.926 280.370 L 305.926 271.111 302.407 271.111 L 298.889 271.111 298.889 280.370 M198.148 302.958 C 191.829 309.381,189.038 312.469,188.957 313.128 L 188.840 314.074 222.938 314.074 L 257.037 314.074 257.037 303.889 L 257.037 293.704 232.130 293.719 L 207.222 293.734 198.148 302.958 M261.111 303.889 L 261.111 314.074 283.519 314.074 L 305.926 314.074 305.926 303.889 L 305.926 293.704 283.519 293.704 L 261.111 293.704 261.111 303.889 M172.695 328.531 L 162.242 338.889 172.510 338.888 L 182.778 338.886 184.004 336.515 C 190.514 323.925,209.857 323.925,216.367 336.515 L 217.593 338.886 220.093 338.888 L 222.593 338.889 222.593 328.519 L 222.593 318.148 202.870 318.160 L 183.148 318.172 172.695 328.531 M226.667 328.519 L 226.667 338.889 260.833 338.889 L 295.000 338.889 295.000 328.519 L 295.000 318.148 260.833 318.148 L 226.667 318.148 226.667 328.519 M298.889 328.519 L 298.889 338.889 302.407 338.889 L 305.926 338.889 305.926 328.519 L 305.926 318.148 302.407 318.148 L 298.889 318.148 298.889 328.519 M155.370 343.639 C 154.759 344.009,153.176 344.874,151.852 345.562 C 150.528 346.250,149.028 347.085,148.519 347.418 C 147.293 348.219,142.313 350.169,139.074 351.115 C 137.648 351.532,136.207 352.026,135.872 352.212 C 132.523 354.074,111.232 355.337,107.478 353.896 C 107.190 353.786,105.153 355.560,102.567 358.174 C 97.782 363.011,97.809 362.946,99.680 364.954 C 100.060 365.362,100.370 365.830,100.370 365.994 C 100.370 366.625,105.377 371.737,107.378 373.148 C 108.533 373.963,109.933 374.991,110.490 375.432 C 111.752 376.432,116.950 378.332,121.021 379.281 C 124.018 379.980,126.190 380.000,200.380 380.000 L 276.657 380.000 280.121 379.100 C 284.193 378.042,288.687 376.351,289.564 375.546 C 289.906 375.233,290.784 374.609,291.516 374.161 C 297.017 370.788,304.444 360.795,304.444 356.766 C 304.444 356.508,304.594 356.296,304.777 356.296 C 305.350 356.296,305.926 351.783,305.926 347.284 L 305.926 342.963 283.519 342.963 L 261.111 342.963 261.111 344.815 L 261.111 346.667 259.074 346.667 L 257.037 346.667 257.037 344.815 L 257.037 342.963 237.778 342.963 L 218.519 342.963 218.514 345.648 C 218.488 361.596,199.035 369.765,187.435 358.699 C 183.786 355.219,181.865 350.724,181.856 345.648 L 181.852 342.963 169.167 342.964 C 157.565 342.966,156.387 343.023,155.370 343.639 " stroke="none" fill="#ffffff" fill-rule="evenodd"></path><path id="path3" d="" stroke="none" fill="#333355" fill-rule="evenodd"></path><path id="path4" d="M108.268 126.944 C 115.769 127.000,127.936 127.000,135.305 126.944 C 142.674 126.888,136.537 126.842,121.667 126.842 C 106.796 126.842,100.767 126.888,108.268 126.944 M158.056 126.944 C 161.162 127.006,166.245 127.006,169.352 126.944 C 172.458 126.882,169.917 126.831,163.704 126.831 C 157.491 126.831,154.949 126.882,158.056 126.944 M218.436 126.938 C 219.307 127.017,220.640 127.015,221.399 126.936 C 222.157 126.856,221.444 126.792,219.815 126.794 C 218.185 126.795,217.565 126.860,218.436 126.938 M228.981 126.941 C 230.356 127.013,232.606 127.013,233.981 126.941 C 235.356 126.870,234.231 126.812,231.481 126.812 C 228.731 126.812,227.606 126.870,228.981 126.941 M260.490 126.944 C 266.972 127.001,277.472 127.001,283.823 126.944 C 290.174 126.887,284.870 126.841,272.037 126.841 C 259.204 126.841,254.007 126.888,260.490 126.944 M300.463 126.939 C 301.431 127.015,303.014 127.015,303.981 126.939 C 304.949 126.863,304.157 126.800,302.222 126.800 C 300.287 126.800,299.495 126.863,300.463 126.939 M258.246 346.192 C 258.809 346.277,259.642 346.275,260.098 346.187 C 260.553 346.099,260.093 346.029,259.074 346.032 C 258.056 346.035,257.683 346.107,258.246 346.192 " stroke="none" fill="#3d3d55" fill-rule="evenodd"></path><path id="path5" d="" stroke="none" fill="#2d4b4b" fill-rule="evenodd"></path><path id="path6" d="" stroke="none" fill="#43435e" fill-rule="evenodd"></path><path id="path7" d="" stroke="none" fill="#005555" fill-rule="evenodd"></path><path id="path8" d="M145.165 206.574 L 143.889 207.963 145.278 206.687 C 146.571 205.499,146.837 205.185,146.554 205.185 C 146.492 205.185,145.867 205.810,145.165 206.574 M166.944 339.166 C 169.847 339.228,174.597 339.228,177.500 339.166 C 180.403 339.103,178.028 339.052,172.222 339.052 C 166.417 339.052,164.042 339.103,166.944 339.166 M218.788 339.156 C 219.446 339.238,220.612 339.239,221.381 339.159 C 222.149 339.079,221.611 339.012,220.185 339.010 C 218.759 339.009,218.131 339.074,218.788 339.156 M243.583 339.167 C 252.989 339.222,268.489 339.222,278.028 339.167 C 287.566 339.112,279.870 339.067,260.926 339.067 C 241.981 339.067,234.177 339.112,243.583 339.167 M300.463 339.161 C 301.431 339.237,303.014 339.237,303.981 339.161 C 304.949 339.085,304.157 339.022,302.222 339.022 C 300.287 339.022,299.495 339.085,300.463 339.161 " stroke="none" fill="#484858" fill-rule="evenodd"></path><path id="path9" d="" stroke="none" fill="#3e4f61" fill-rule="evenodd"></path><path id="path10" d="M119.421 63.889 C 119.421 69.389,119.473 71.691,119.536 69.004 C 119.599 66.317,119.599 61.817,119.536 59.004 C 119.473 56.191,119.422 58.389,119.421 63.889 M119.422 113.148 C 119.422 118.852,119.474 121.133,119.536 118.218 C 119.599 115.303,119.599 110.637,119.536 107.848 C 119.473 105.059,119.422 107.444,119.422 113.148 M119.422 160.000 C 119.422 165.602,119.473 167.894,119.536 165.093 C 119.599 162.292,119.599 157.708,119.536 154.907 C 119.473 152.106,119.422 154.398,119.422 160.000 " stroke="none" fill="#4f4f67" fill-rule="evenodd"></path><path id="path11" d="M120.468 53.969 C 121.031 54.055,121.864 54.052,122.320 53.964 C 122.775 53.877,122.315 53.807,121.296 53.810 C 120.278 53.812,119.905 53.884,120.468 53.969 M186.024 53.969 C 186.587 54.055,187.420 54.052,187.875 53.964 C 188.331 53.877,187.870 53.807,186.852 53.810 C 185.833 53.812,185.461 53.884,186.024 53.969 M258.246 53.969 C 258.809 54.055,259.642 54.052,260.098 53.964 C 260.553 53.877,260.093 53.807,259.074 53.810 C 258.056 53.812,257.683 53.884,258.246 53.969 M298.681 88.333 C 298.680 93.833,298.732 96.135,298.795 93.448 C 298.858 90.761,298.859 86.261,298.796 83.448 C 298.733 80.635,298.681 82.833,298.681 88.333 M232.963 90.857 C 232.963 90.920,233.505 91.462,234.167 92.060 L 235.370 93.148 234.283 91.944 C 233.269 90.822,232.963 90.570,232.963 90.857 M181.091 121.019 L 179.815 122.407 181.204 121.131 C 181.968 120.429,182.593 119.804,182.593 119.742 C 182.593 119.459,182.279 119.726,181.091 121.019 M298.679 136.296 C 298.679 141.287,298.731 143.329,298.795 140.833 C 298.859 138.338,298.859 134.255,298.795 131.759 C 298.731 129.264,298.679 131.306,298.679 136.296 M298.681 184.444 C 298.681 190.046,298.732 192.338,298.795 189.537 C 298.858 186.736,298.858 182.153,298.795 179.352 C 298.732 176.551,298.681 178.843,298.681 184.444 M101.832 200.648 L 100.556 202.037 101.944 200.761 C 103.237 199.573,103.504 199.259,103.221 199.259 C 103.159 199.259,102.534 199.884,101.832 200.648 M298.680 232.963 C 298.680 238.157,298.732 240.282,298.795 237.685 C 298.859 235.088,298.859 230.838,298.795 228.241 C 298.732 225.644,298.680 227.769,298.680 232.963 M298.679 280.370 C 298.679 285.361,298.731 287.403,298.795 284.907 C 298.859 282.412,298.859 278.329,298.795 275.833 C 298.731 273.338,298.679 275.380,298.679 280.370 M192.659 318.055 C 198.094 318.113,207.094 318.113,212.659 318.055 C 218.224 317.998,213.778 317.951,202.778 317.950 C 191.778 317.950,187.224 317.998,192.659 318.055 M243.583 318.055 C 252.989 318.110,268.489 318.110,278.028 318.055 C 287.566 318.000,279.870 317.955,260.926 317.955 C 241.981 317.955,234.177 318.000,243.583 318.055 M300.661 318.051 C 301.737 318.126,303.404 318.126,304.364 318.050 C 305.325 317.973,304.444 317.912,302.407 317.913 C 300.370 317.914,299.584 317.976,300.661 318.051 M298.681 328.519 C 298.681 334.120,298.732 336.412,298.795 333.611 C 298.858 330.810,298.858 326.227,298.795 323.426 C 298.732 320.625,298.681 322.917,298.681 328.519 M172.573 328.056 L 171.296 329.444 172.685 328.168 C 173.978 326.980,174.244 326.667,173.962 326.667 C 173.900 326.667,173.275 327.292,172.573 328.056 M168.148 332.407 C 167.249 333.324,166.596 334.074,166.698 334.074 C 166.799 334.074,167.619 333.324,168.519 332.407 C 169.418 331.491,170.071 330.741,169.969 330.741 C 169.867 330.741,169.048 331.491,168.148 332.407 " stroke="none" fill="#53586c" fill-rule="evenodd"></path><path id="path12" d="M177.037 323.519 C 176.137 324.435,175.485 325.185,175.587 325.185 C 175.688 325.185,176.508 324.435,177.407 323.519 C 178.307 322.602,178.960 321.852,178.858 321.852 C 178.756 321.852,177.937 322.602,177.037 323.519 " stroke="none" fill="#5e5e6d" fill-rule="evenodd"></path><path id="path13" d="M184.977 64.074 C 184.977 69.676,185.029 71.968,185.092 69.167 C 185.155 66.366,185.155 61.782,185.092 58.981 C 185.029 56.181,184.977 58.472,184.977 64.074 M184.970 109.630 C 184.970 113.602,185.024 115.227,185.091 113.241 C 185.158 111.255,185.158 108.005,185.091 106.019 C 185.024 104.032,184.970 105.657,184.970 109.630 M171.111 130.926 C 170.211 131.843,169.559 132.593,169.661 132.593 C 169.762 132.593,170.582 131.843,171.481 130.926 C 172.381 130.009,173.034 129.259,172.932 129.259 C 172.830 129.259,172.011 130.009,171.111 130.926 M184.916 168.889 C 184.916 169.806,184.988 170.181,185.076 169.722 C 185.164 169.264,185.164 168.514,185.076 168.056 C 184.988 167.597,184.916 167.972,184.916 168.889 M162.397 189.352 L 159.815 192.037 162.500 189.454 C 164.994 187.056,165.354 186.667,165.083 186.667 C 165.026 186.667,163.818 187.875,162.397 189.352 M184.978 209.074 C 184.978 214.778,185.029 217.059,185.092 214.144 C 185.155 211.229,185.154 206.562,185.092 203.774 C 185.029 200.985,184.977 203.370,184.978 209.074 M218.611 271.011 C 219.375 271.090,220.625 271.090,221.389 271.011 C 222.153 270.931,221.528 270.865,220.000 270.865 C 218.472 270.865,217.847 270.931,218.611 271.011 M243.583 271.018 C 252.989 271.073,268.489 271.073,278.028 271.018 C 287.566 270.963,279.870 270.918,260.926 270.918 C 241.981 270.918,234.177 270.963,243.583 271.018 M300.661 271.014 C 301.737 271.089,303.404 271.088,304.364 271.012 C 305.325 270.936,304.444 270.875,302.407 270.876 C 300.370 270.877,299.584 270.939,300.661 271.014 M180.542 320.093 L 178.704 322.037 180.648 320.199 C 181.718 319.188,182.593 318.313,182.593 318.255 C 182.593 317.978,182.249 318.286,180.542 320.093 " stroke="none" fill="#646a78" fill-rule="evenodd"></path><path id="path14" d="M260.903 63.889 C 260.903 69.389,260.954 71.691,261.017 69.004 C 261.081 66.317,261.081 61.817,261.018 59.004 C 260.955 56.191,260.903 58.389,260.903 63.889 M260.904 113.148 C 260.904 118.852,260.955 121.133,261.018 118.218 C 261.080 115.303,261.080 110.637,261.017 107.848 C 260.955 105.059,260.903 107.444,260.904 113.148 M166.647 135.463 L 165.370 136.852 166.759 135.575 C 167.523 134.873,168.148 134.248,168.148 134.187 C 168.148 133.904,167.835 134.170,166.647 135.463 M100.439 149.536 C 103.838 149.597,109.505 149.597,113.032 149.537 C 116.559 149.476,113.778 149.426,106.852 149.426 C 99.926 149.425,97.040 149.475,100.439 149.536 M130.463 149.537 C 134.486 149.596,141.069 149.596,145.093 149.537 C 149.116 149.477,145.824 149.428,137.778 149.428 C 129.731 149.428,126.440 149.477,130.463 149.537 M208.772 149.536 C 212.273 149.597,218.106 149.597,221.735 149.537 C 225.364 149.476,222.500 149.426,215.370 149.426 C 208.241 149.426,205.272 149.476,208.772 149.536 M246.778 149.536 C 248.775 149.602,251.942 149.602,253.816 149.535 C 255.689 149.468,254.056 149.413,250.185 149.414 C 246.315 149.414,244.782 149.469,246.778 149.536 M272.341 149.537 C 278.620 149.594,288.787 149.594,294.934 149.537 C 301.081 149.480,295.944 149.433,283.519 149.433 C 271.093 149.433,266.063 149.480,272.341 149.537 M260.903 160.000 C 260.903 165.602,260.955 167.894,261.018 165.093 C 261.081 162.292,261.081 157.708,261.018 154.907 C 260.955 152.106,260.903 154.398,260.903 160.000 M167.397 184.352 L 165.000 186.852 167.500 184.455 C 168.875 183.137,170.000 182.012,170.000 181.955 C 170.000 181.683,169.623 182.030,167.397 184.352 M97.500 195.091 C 99.282 195.158,102.199 195.158,103.981 195.091 C 105.764 195.023,104.306 194.967,100.741 194.967 C 97.176 194.967,95.718 195.023,97.500 195.091 M173.611 195.092 C 182.625 195.148,197.375 195.148,206.389 195.092 C 215.403 195.037,208.028 194.992,190.000 194.992 C 171.972 194.992,164.597 195.037,173.611 195.092 M243.583 195.092 C 252.989 195.148,268.489 195.148,278.028 195.093 C 287.566 195.038,279.870 194.992,260.926 194.992 C 241.981 194.992,234.177 195.037,243.583 195.092 M300.661 195.088 C 301.737 195.163,303.404 195.163,304.364 195.087 C 305.325 195.011,304.444 194.949,302.407 194.950 C 300.370 194.951,299.584 195.013,300.661 195.088 M260.903 209.074 C 260.903 214.574,260.954 216.876,261.017 214.189 C 261.081 211.502,261.081 207.002,261.018 204.189 C 260.955 201.376,260.903 203.574,260.903 209.074 M260.903 256.852 C 260.903 262.352,260.954 264.653,261.017 261.967 C 261.081 259.280,261.081 254.780,261.018 251.967 C 260.955 249.153,260.903 251.352,260.903 256.852 M260.904 304.259 C 260.904 309.963,260.955 312.245,261.018 309.329 C 261.080 306.414,261.080 301.748,261.017 298.959 C 260.955 296.170,260.903 298.556,260.904 304.259 M260.847 344.259 C 260.849 345.278,260.921 345.650,261.007 345.088 C 261.092 344.525,261.089 343.691,261.001 343.236 C 260.914 342.780,260.844 343.241,260.847 344.259 " stroke="none" fill="#717382" fill-rule="evenodd"></path><path id="path15" d="M222.711 80.741 C 222.711 82.065,222.778 82.606,222.861 81.944 C 222.943 81.282,222.943 80.199,222.861 79.537 C 222.778 78.875,222.711 79.417,222.711 80.741 M222.753 136.296 C 222.753 141.287,222.805 143.329,222.869 140.833 C 222.933 138.338,222.933 134.255,222.869 131.759 C 222.805 129.264,222.753 131.306,222.753 136.296 M162.020 140.093 L 160.556 141.667 162.130 140.203 C 163.594 138.841,163.874 138.519,163.594 138.519 C 163.533 138.519,162.825 139.227,162.020 140.093 M222.755 184.444 C 222.755 190.046,222.807 192.338,222.869 189.537 C 222.932 186.736,222.932 182.153,222.869 179.352 C 222.807 176.551,222.755 178.843,222.755 184.444 M172.212 179.537 L 169.815 182.037 172.315 179.640 C 173.690 178.322,174.815 177.197,174.815 177.140 C 174.815 176.868,174.438 177.215,172.212 179.537 M222.754 232.963 C 222.754 238.157,222.806 240.282,222.869 237.685 C 222.933 235.088,222.933 230.838,222.869 228.241 C 222.806 225.644,222.754 227.769,222.754 232.963 M222.753 280.370 C 222.753 285.361,222.805 287.403,222.869 284.907 C 222.933 282.412,222.933 278.329,222.869 275.833 C 222.805 273.338,222.753 275.380,222.753 280.370 M189.792 310.833 L 188.704 312.037 189.907 310.949 C 190.569 310.351,191.111 309.809,191.111 309.746 C 191.111 309.459,190.806 309.711,189.792 310.833 M222.755 328.519 C 222.755 334.120,222.807 336.412,222.869 333.611 C 222.932 330.810,222.932 326.227,222.869 323.426 C 222.807 320.625,222.755 322.917,222.755 328.519 " stroke="none" fill="#787c8b" fill-rule="evenodd"></path><path id="path16" d="M198.987 89.895 C 199.550 89.981,200.383 89.978,200.838 89.890 C 201.294 89.802,200.833 89.733,199.815 89.736 C 198.796 89.738,198.424 89.810,198.987 89.895 M100.439 102.499 C 103.838 102.560,109.505 102.560,113.032 102.500 C 116.559 102.439,113.778 102.389,106.852 102.388 C 99.926 102.388,97.040 102.438,100.439 102.499 M131.759 102.500 C 136.495 102.558,144.245 102.558,148.981 102.500 C 153.718 102.441,149.843 102.393,140.370 102.393 C 130.898 102.393,127.023 102.441,131.759 102.500 M175.833 102.498 C 177.514 102.566,180.264 102.566,181.944 102.498 C 183.625 102.429,182.250 102.373,178.889 102.373 C 175.528 102.373,174.153 102.429,175.833 102.498 M198.426 102.500 C 203.773 102.558,212.523 102.558,217.870 102.500 C 223.218 102.442,218.843 102.395,208.148 102.395 C 197.454 102.395,193.079 102.442,198.426 102.500 M246.223 102.499 C 248.322 102.565,251.656 102.565,253.631 102.498 C 255.606 102.432,253.889 102.378,249.815 102.378 C 245.741 102.378,244.125 102.433,246.223 102.499 M260.983 102.500 C 260.827 102.752,277.203 102.748,297.778 102.492 C 302.157 102.437,295.709 102.354,283.448 102.307 C 271.187 102.260,261.077 102.347,260.983 102.500 M157.758 144.352 L 156.481 145.741 157.870 144.464 C 158.634 143.762,159.259 143.137,159.259 143.075 C 159.259 142.793,158.946 143.059,157.758 144.352 M195.173 305.463 L 193.148 307.593 195.278 305.568 C 197.256 303.687,197.577 303.333,197.302 303.333 C 197.244 303.333,196.286 304.292,195.173 305.463 " stroke="none" fill="#7c838d" fill-rule="evenodd"></path><path id="path17" d="" stroke="none" fill="#838794" fill-rule="evenodd"></path><path id="path18" d="M149.259 152.778 C 148.360 153.694,147.707 154.444,147.809 154.444 C 147.911 154.444,148.730 153.694,149.630 152.778 C 150.529 151.861,151.182 151.111,151.080 151.111 C 150.978 151.111,150.159 151.861,149.259 152.778 M182.760 168.981 L 181.296 170.556 182.870 169.092 C 184.334 167.730,184.615 167.407,184.334 167.407 C 184.274 167.407,183.566 168.116,182.760 168.981 M202.014 298.611 L 200.926 299.815 202.130 298.727 C 203.252 297.713,203.504 297.407,203.217 297.407 C 203.154 297.407,202.612 297.949,202.014 298.611 " stroke="none" fill="#898d96" fill-rule="evenodd"></path><path id="path19" d="M145.727 156.389 L 143.889 158.333 145.833 156.495 C 146.903 155.485,147.778 154.610,147.778 154.551 C 147.778 154.275,147.435 154.582,145.727 156.389 M219.722 293.611 C 226.597 293.667,237.847 293.667,244.722 293.611 C 251.597 293.555,245.972 293.508,232.222 293.508 C 218.472 293.508,212.847 293.555,219.722 293.611 M272.341 293.611 C 278.620 293.668,288.787 293.668,294.934 293.611 C 301.081 293.554,295.944 293.507,283.519 293.507 C 271.093 293.507,266.063 293.554,272.341 293.611 " stroke="none" fill="#9394a0" fill-rule="evenodd"></path><path id="path20" d="M100.439 74.351 C 103.838 74.412,109.505 74.412,113.032 74.351 C 116.559 74.290,113.778 74.240,106.852 74.240 C 99.926 74.240,97.040 74.290,100.439 74.351 M138.611 74.352 C 147.116 74.407,161.032 74.407,169.537 74.352 C 178.042 74.296,171.083 74.251,154.074 74.251 C 137.065 74.251,130.106 74.296,138.611 74.352 M205.833 74.352 C 215.255 74.407,230.671 74.407,240.093 74.352 C 249.514 74.297,241.806 74.252,222.963 74.252 C 204.120 74.252,196.412 74.297,205.833 74.352 M272.341 74.352 C 278.620 74.409,288.787 74.409,294.934 74.352 C 301.081 74.295,295.944 74.248,283.519 74.248 C 271.093 74.248,266.063 74.295,272.341 74.352 M148.681 88.333 C 148.682 94.037,148.733 96.319,148.796 93.404 C 148.858 90.488,148.858 85.822,148.795 83.033 C 148.732 80.245,148.681 82.630,148.681 88.333 M148.680 136.296 C 148.680 141.491,148.732 143.616,148.795 141.019 C 148.859 138.421,148.859 134.171,148.795 131.574 C 148.732 128.977,148.680 131.102,148.680 136.296 M141.111 160.926 C 139.594 162.454,138.435 163.704,138.537 163.704 C 138.639 163.704,139.964 162.454,141.481 160.926 C 142.999 159.398,144.157 158.148,144.056 158.148 C 143.954 158.148,142.629 159.398,141.111 160.926 M190.542 161.204 L 188.704 163.148 190.648 161.310 C 191.718 160.299,192.593 159.424,192.593 159.366 C 192.593 159.089,192.249 159.397,190.542 161.204 M174.537 233.218 C 174.894 233.311,175.477 233.311,175.833 233.218 C 176.190 233.125,175.898 233.049,175.185 233.049 C 174.472 233.049,174.181 233.125,174.537 233.218 M100.358 359.907 L 98.333 362.037 100.463 360.013 C 102.441 358.132,102.762 357.778,102.487 357.778 C 102.429 357.778,101.471 358.736,100.358 359.907 " stroke="none" fill="#999ca4" fill-rule="evenodd"></path><path id="path21" d="M196.473 155.278 L 193.519 158.333 196.574 155.379 C 198.255 153.754,199.630 152.379,199.630 152.324 C 199.630 152.053,199.217 152.440,196.473 155.278 M135.543 166.574 L 133.519 168.704 135.648 166.679 C 137.627 164.799,137.947 164.444,137.673 164.444 C 137.615 164.444,136.656 165.403,135.543 166.574 M181.944 223.241 C 189.431 223.297,201.681 223.297,209.167 223.241 C 216.653 223.185,210.528 223.139,195.556 223.139 C 180.583 223.139,174.458 223.185,181.944 223.241 M243.611 223.241 C 253.032 223.296,268.449 223.296,277.870 223.241 C 287.292 223.186,279.583 223.141,260.741 223.141 C 241.898 223.141,234.190 223.186,243.611 223.241 M300.661 223.236 C 301.737 223.311,303.404 223.311,304.364 223.235 C 305.325 223.159,304.444 223.097,302.407 223.098 C 300.370 223.099,299.584 223.161,300.661 223.236 M209.009 246.574 C 217.937 246.629,232.437 246.629,241.232 246.574 C 250.026 246.519,242.722 246.473,225.000 246.473 C 207.278 246.473,200.082 246.519,209.009 246.574 M272.341 246.574 C 278.620 246.631,288.787 246.631,294.934 246.574 C 301.081 246.517,295.944 246.470,283.519 246.470 C 271.093 246.470,266.063 246.517,272.341 246.574 M104.432 355.833 L 102.407 357.963 104.537 355.939 C 106.516 354.058,106.836 353.704,106.561 353.704 C 106.504 353.704,105.545 354.662,104.432 355.833 M114.907 354.329 C 115.264 354.423,115.847 354.423,116.204 354.329 C 116.560 354.236,116.269 354.160,115.556 354.160 C 114.843 354.160,114.551 354.236,114.907 354.329 " stroke="none" fill="#a4a7ae" fill-rule="evenodd"></path><path id="path22" d="M200.721 151.019 L 199.444 152.407 200.833 151.131 C 202.126 149.943,202.393 149.630,202.110 149.630 C 202.048 149.630,201.423 150.255,200.721 151.019 M171.780 219.536 C 174.288 219.600,178.288 219.600,180.669 219.536 C 183.051 219.471,181.000 219.419,176.111 219.419 C 171.222 219.419,169.273 219.472,171.780 219.536 M205.833 219.537 C 215.255 219.592,230.671 219.592,240.093 219.537 C 249.514 219.482,241.806 219.437,222.963 219.437 C 204.120 219.437,196.412 219.482,205.833 219.537 M272.341 219.537 C 278.620 219.594,288.787 219.594,294.934 219.537 C 301.081 219.480,295.944 219.433,283.519 219.433 C 271.093 219.433,266.063 219.480,272.341 219.537 M199.167 242.870 C 203.495 242.929,210.579 242.929,214.907 242.870 C 219.236 242.811,215.694 242.762,207.037 242.762 C 198.380 242.762,194.838 242.811,199.167 242.870 M243.611 242.870 C 253.032 242.925,268.449 242.925,277.870 242.870 C 287.292 242.815,279.583 242.770,260.741 242.770 C 241.898 242.770,234.190 242.815,243.611 242.870 M300.661 242.866 C 301.737 242.941,303.404 242.940,304.364 242.864 C 305.325 242.788,304.444 242.727,302.407 242.728 C 300.370 242.729,299.584 242.791,300.661 242.866 " stroke="none" fill="#aeafb9" fill-rule="evenodd"></path><path id="path23" d="M207.778 143.889 C 206.878 144.806,206.225 145.556,206.327 145.556 C 206.429 145.556,207.249 144.806,208.148 143.889 C 209.048 142.972,209.701 142.222,209.599 142.222 C 209.497 142.222,208.677 142.972,207.778 143.889 " stroke="none" fill="#b3b5bd" fill-rule="evenodd"></path><path id="path24" d="M107.870 78.055 C 115.356 78.111,127.606 78.111,135.093 78.055 C 142.579 77.999,136.454 77.954,121.481 77.954 C 106.509 77.954,100.384 77.999,107.870 78.055 M162.711 78.055 C 168.379 78.113,177.545 78.113,183.082 78.055 C 188.618 77.998,183.981 77.951,172.778 77.951 C 161.574 77.951,157.044 77.998,162.711 78.055 M207.498 77.992 C 207.750 78.243,222.291 78.203,222.544 77.950 C 222.639 77.855,219.244 77.778,215.000 77.778 C 210.756 77.778,207.380 77.874,207.498 77.992 M243.611 78.055 C 253.032 78.111,268.449 78.111,277.870 78.055 C 287.292 78.000,279.583 77.955,260.741 77.955 C 241.898 77.955,234.190 78.000,243.611 78.055 M300.661 78.051 C 301.737 78.126,303.404 78.126,304.364 78.050 C 305.325 77.973,304.444 77.912,302.407 77.913 C 300.370 77.914,299.584 77.976,300.661 78.051 M152.384 88.333 C 152.384 93.833,152.436 96.135,152.499 93.448 C 152.562 90.761,152.562 86.261,152.499 83.448 C 152.436 80.635,152.385 82.833,152.384 88.333 M152.382 136.296 C 152.382 141.287,152.435 143.329,152.499 140.833 C 152.563 138.338,152.563 134.255,152.499 131.759 C 152.435 129.264,152.382 131.306,152.382 136.296 M210.908 140.833 L 209.444 142.407 211.019 140.943 C 212.482 139.582,212.763 139.259,212.483 139.259 C 212.422 139.259,211.714 139.968,210.908 140.833 M120.721 181.389 L 119.444 182.778 120.833 181.501 C 122.126 180.313,122.393 180.000,122.110 180.000 C 122.048 180.000,121.423 180.625,120.721 181.389 M213.999 289.905 C 215.689 289.974,218.356 289.974,219.925 289.905 C 221.494 289.835,220.111 289.779,216.852 289.780 C 213.593 289.780,212.309 289.837,213.999 289.905 M243.611 289.907 C 253.032 289.962,268.449 289.962,277.870 289.907 C 287.292 289.852,279.583 289.807,260.741 289.807 C 241.898 289.807,234.190 289.852,243.611 289.907 M300.661 289.903 C 301.737 289.978,303.404 289.977,304.364 289.901 C 305.325 289.825,304.444 289.764,302.407 289.765 C 300.370 289.766,299.584 289.828,300.661 289.903 " stroke="none" fill="#b9bbc1" fill-rule="evenodd"></path><path id="path25" d="" stroke="none" fill="#c4c5ca" fill-rule="evenodd"></path><path id="path26" d="" stroke="none" fill="#cbcdd2" fill-rule="evenodd"></path><path id="path27" d="M226.430 81.852 C 226.430 83.787,226.492 84.579,226.569 83.611 C 226.645 82.644,226.645 81.060,226.569 80.093 C 226.492 79.125,226.430 79.917,226.430 81.852 M107.870 98.796 C 115.356 98.852,127.606 98.852,135.093 98.796 C 142.579 98.740,136.454 98.694,121.481 98.694 C 106.509 98.694,100.384 98.740,107.870 98.796 M154.352 98.792 C 155.421 98.866,157.171 98.866,158.241 98.792 C 159.310 98.717,158.435 98.656,156.296 98.656 C 154.157 98.656,153.282 98.717,154.352 98.792 M188.056 98.796 C 194.421 98.853,204.838 98.853,211.204 98.796 C 217.569 98.739,212.361 98.693,199.630 98.693 C 186.898 98.693,181.690 98.739,188.056 98.796 M253.769 98.796 C 261.240 98.852,273.573 98.852,281.176 98.796 C 288.779 98.740,282.667 98.694,267.593 98.694 C 252.519 98.694,246.298 98.740,253.769 98.796 M300.661 98.792 C 301.737 98.867,303.404 98.866,304.364 98.790 C 305.325 98.714,304.444 98.653,302.407 98.654 C 300.370 98.655,299.584 98.717,300.661 98.792 M226.456 136.296 C 226.456 141.287,226.509 143.329,226.573 140.833 C 226.637 138.338,226.637 134.255,226.573 131.759 C 226.509 129.264,226.456 131.306,226.456 136.296 M226.459 184.444 C 226.459 190.046,226.510 192.338,226.573 189.537 C 226.636 186.736,226.636 182.153,226.573 179.352 C 226.510 176.551,226.459 178.843,226.459 184.444 M226.457 232.963 C 226.457 238.157,226.509 240.282,226.573 237.685 C 226.637 235.088,226.637 230.838,226.573 228.241 C 226.509 225.644,226.457 227.769,226.457 232.963 M226.456 280.370 C 226.456 285.361,226.509 287.403,226.573 284.907 C 226.637 282.412,226.637 278.329,226.573 275.833 C 226.509 273.338,226.456 275.380,226.456 280.370 M226.459 328.519 C 226.459 334.120,226.510 336.412,226.573 333.611 C 226.636 330.810,226.636 326.227,226.573 323.426 C 226.510 320.625,226.459 322.917,226.459 328.519 " stroke="none" fill="#d1d3d6" fill-rule="evenodd"></path><path id="path28" d="M257.199 63.889 C 257.199 69.389,257.250 71.691,257.314 69.004 C 257.377 66.317,257.377 61.817,257.314 59.004 C 257.251 56.191,257.199 58.389,257.199 63.889 M257.200 113.148 C 257.200 118.852,257.251 121.133,257.314 118.218 C 257.377 115.303,257.377 110.637,257.314 107.848 C 257.251 105.059,257.200 107.444,257.200 113.148 M257.200 160.000 C 257.200 165.602,257.251 167.894,257.314 165.093 C 257.377 162.292,257.377 157.708,257.314 154.907 C 257.251 152.106,257.200 154.398,257.200 160.000 M98.626 198.795 C 101.735 198.879,102.918 199.032,102.735 199.328 C 102.579 199.582,102.645 199.641,102.906 199.480 C 104.078 198.755,103.001 198.524,98.796 198.598 L 94.259 198.678 98.626 198.795 M161.389 198.796 C 165.718 198.855,172.801 198.855,177.130 198.796 C 181.458 198.737,177.917 198.688,169.259 198.688 C 160.602 198.688,157.060 198.737,161.389 198.796 M205.833 198.796 C 215.255 198.851,230.671 198.851,240.093 198.796 C 249.514 198.741,241.806 198.696,222.963 198.696 C 204.120 198.696,196.412 198.741,205.833 198.796 M272.341 198.796 C 278.620 198.853,288.787 198.853,294.934 198.796 C 301.081 198.739,295.944 198.692,283.519 198.693 C 271.093 198.693,266.063 198.739,272.341 198.796 M257.199 209.074 C 257.199 214.574,257.250 216.876,257.314 214.189 C 257.377 211.502,257.377 207.002,257.314 204.189 C 257.251 201.376,257.199 203.574,257.199 209.074 M257.199 256.852 C 257.199 262.352,257.250 264.653,257.314 261.967 C 257.377 259.280,257.377 254.780,257.314 251.967 C 257.251 249.153,257.199 251.352,257.199 256.852 M257.200 304.074 C 257.200 309.676,257.251 311.968,257.314 309.167 C 257.377 306.366,257.377 301.782,257.314 298.981 C 257.251 296.181,257.200 298.472,257.200 304.074 M257.138 344.444 C 257.138 345.361,257.210 345.736,257.298 345.278 C 257.387 344.819,257.387 344.069,257.298 343.611 C 257.210 343.153,257.138 343.528,257.138 344.444 M258.246 346.562 C 258.809 346.647,259.642 346.645,260.098 346.557 C 260.553 346.469,260.093 346.399,259.074 346.402 C 258.056 346.405,257.683 346.477,258.246 346.562 " stroke="none" fill="#dcdce0" fill-rule="evenodd"></path><path id="path29" d="M120.278 53.595 C 120.736 53.683,121.486 53.683,121.944 53.595 C 122.403 53.506,122.028 53.434,121.111 53.434 C 120.194 53.434,119.819 53.506,120.278 53.595 M186.024 53.599 C 186.587 53.684,187.420 53.682,187.875 53.594 C 188.331 53.506,187.870 53.436,186.852 53.439 C 185.833 53.442,185.461 53.514,186.024 53.599 M257.270 53.626 C 257.170 53.787,257.702 53.861,258.452 53.790 C 260.742 53.573,261.012 53.421,259.189 53.376 C 258.233 53.353,257.370 53.465,257.270 53.626 M107.870 145.833 C 115.356 145.889,127.606 145.889,135.093 145.833 C 142.579 145.777,136.454 145.731,121.481 145.731 C 106.509 145.731,100.384 145.777,107.870 145.833 M153.431 145.821 C 153.994 145.906,154.827 145.904,155.283 145.816 C 155.738 145.728,155.278 145.659,154.259 145.661 C 153.241 145.664,152.868 145.736,153.431 145.821 M210.278 145.832 C 212.569 145.897,216.319 145.897,218.611 145.832 C 220.903 145.767,219.028 145.714,214.444 145.714 C 209.861 145.714,207.986 145.767,210.278 145.832 M227.692 145.824 C 228.358 145.906,229.358 145.905,229.914 145.820 C 230.471 145.736,229.926 145.668,228.704 145.670 C 227.481 145.672,227.026 145.742,227.692 145.824 M257.500 145.833 C 264.375 145.890,275.625 145.890,282.500 145.833 C 289.375 145.777,283.750 145.731,270.000 145.731 C 256.250 145.731,250.625 145.777,257.500 145.833 M300.661 145.829 C 301.737 145.904,303.404 145.903,304.364 145.827 C 305.325 145.751,304.444 145.690,302.407 145.691 C 300.370 145.692,299.584 145.754,300.661 145.829 M161.643 190.463 L 160.556 191.667 161.759 190.579 C 162.421 189.981,162.963 189.439,162.963 189.375 C 162.963 189.089,162.657 189.341,161.643 190.463 M236.481 267.037 L 215.741 267.232 236.367 267.319 C 249.814 267.377,257.073 267.278,257.222 267.037 C 257.348 266.833,257.400 266.706,257.337 266.755 C 257.274 266.803,247.889 266.930,236.481 267.037 M272.341 267.315 C 278.620 267.372,288.787 267.372,294.934 267.315 C 301.081 267.258,295.944 267.211,283.519 267.211 C 271.093 267.211,266.063 267.258,272.341 267.315 " stroke="none" fill="#e1e2e5" fill-rule="evenodd"></path><path id="path30" d="M188.681 63.889 C 188.680 69.389,188.732 71.691,188.795 69.004 C 188.858 66.317,188.859 61.817,188.796 59.004 C 188.733 56.191,188.681 58.389,188.681 63.889 M188.665 107.963 C 188.665 110.815,188.723 111.933,188.794 110.447 C 188.864 108.961,188.864 106.628,188.793 105.262 C 188.722 103.895,188.664 105.111,188.665 107.963 M157.199 144.537 L 156.111 145.741 157.315 144.653 C 157.977 144.055,158.519 143.513,158.519 143.449 C 158.519 143.163,158.213 143.415,157.199 144.537 M188.652 166.667 C 188.652 168.602,188.714 169.394,188.791 168.426 C 188.867 167.458,188.867 165.875,188.791 164.907 C 188.714 163.940,188.652 164.731,188.652 166.667 M188.681 209.074 C 188.680 214.574,188.732 216.876,188.795 214.189 C 188.858 211.502,188.859 207.002,188.796 204.189 C 188.733 201.376,188.681 203.574,188.681 209.074 " stroke="none" fill="#e9ebeb" fill-rule="evenodd"></path><path id="path31" d="M294.977 88.333 C 294.977 93.833,295.028 96.135,295.091 93.448 C 295.155 90.761,295.155 86.261,295.092 83.448 C 295.029 80.635,294.977 82.833,294.977 88.333 M294.975 136.296 C 294.975 141.287,295.027 143.329,295.091 140.833 C 295.156 138.338,295.156 134.255,295.091 131.759 C 295.027 129.264,294.975 131.306,294.975 136.296 M147.569 154.167 L 146.481 155.370 147.685 154.283 C 148.807 153.269,149.059 152.963,148.773 152.963 C 148.709 152.963,148.168 153.505,147.569 154.167 M294.977 184.444 C 294.977 190.046,295.029 192.338,295.092 189.537 C 295.155 186.736,295.155 182.153,295.092 179.352 C 295.029 176.551,294.977 178.843,294.977 184.444 M294.976 232.963 C 294.976 238.157,295.028 240.282,295.092 237.685 C 295.155 235.088,295.155 230.838,295.092 228.241 C 295.028 225.644,294.976 227.769,294.976 232.963 M199.541 257.669 C 200.002 257.758,200.669 257.755,201.023 257.662 C 201.377 257.569,201.000 257.497,200.185 257.501 C 199.370 257.505,199.081 257.581,199.541 257.669 M294.975 280.370 C 294.975 285.361,295.027 287.403,295.091 284.907 C 295.156 282.412,295.156 278.329,295.091 275.833 C 295.027 273.338,294.975 275.380,294.975 280.370 M188.835 314.169 C 188.989 314.322,204.439 314.406,223.169 314.354 L 257.222 314.259 222.889 314.074 C 204.005 313.972,188.681 314.015,188.835 314.169 M272.341 314.352 C 278.620 314.409,288.787 314.409,294.934 314.352 C 301.081 314.295,295.944 314.248,283.519 314.248 C 271.093 314.248,266.063 314.295,272.341 314.352 M294.977 328.519 C 294.977 334.120,295.029 336.412,295.092 333.611 C 295.155 330.810,295.155 326.227,295.092 323.426 C 295.029 320.625,294.977 322.917,294.977 328.519 " stroke="none" fill="#f0f1f1" fill-rule="evenodd"></path></g></svg>